<svg viewBox="0 0 64 64" data-name="Layer 1" id="Layer_1" xmlns="http://www.w3.org/2000/svg" fill="#000000"><g id="SVGRepo_bgCarrier" stroke-width="0"></g><g id="SVGRepo_tracerCarrier" stroke-linecap="round" stroke-linejoin="round"></g><g id="SVGRepo_iconCarrier"><defs><style> .cls-1 { fill: #f5dd90; } .cls-2 { fill: #f76c5e; } .cls-3 { fill: #6096ba; } .cls-4 { fill: #274c77; } </style></defs><path class="cls-4" d="M52,40l-2,6-2-6V18c0-1.1,.9-2,2-2h0c1.1,0,2,.9,2,2v22Z"></path><path class="cls-2" d="M52,20h-4v-2c0-1.1,.9-2,2-2,.55,0,1.05,.22,1.41,.59,.37,.36,.59,.86,.59,1.41v2Z"></path><polygon class="cls-2" points="52 40 48 40 50 46 52 40"></polygon><path class="cls-3" d="M48,27H22.97c-2.49,0-4.84,1.15-6.35,3.13-2.18,2.87-4.62,8.04-4.62,16.87h4c0-6.43,4-14,4-14v18h14v-18l14-2v-4Z"></path><path class="cls-3" d="M31.44,16.98c.97,1.06,1.56,2.47,1.56,4.02,0,3.31-2.69,6-6,6s-6-2.69-6-6c0-1.55,.59-2.96,1.56-4.02"></path><path class="cls-4" d="M60,61h-28v-2h28c.55,0,1-.45,1-1s-.45-1-1-1H4c-1.65,0-3-1.35-3-3s1.35-3,3-3H49v-3h2v3c0,1.1-.9,2-2,2H4c-.55,0-1,.45-1,1s.45,1,1,1H60c1.65,0,3,1.35,3,3s-1.35,3-3,3Z"></path><rect class="cls-2" height="2" width="2" x="28" y="59"></rect><rect class="cls-2" height="2" width="2" x="24" y="59"></rect><rect class="cls-2" height="2" width="2" x="20" y="59"></rect><rect class="cls-2" height="2" width="2" x="16" y="59"></rect><rect class="cls-2" height="2" width="2" x="12" y="59"></rect><rect class="cls-2" height="2" width="2" x="8" y="59"></rect><rect class="cls-2" height="2" width="2" x="4" y="59"></rect><rect class="cls-4" height="3" width="2" x="39" y="18"></rect><rect class="cls-4" height="5" width="2" x="39" y="11"></rect><circle class="cls-1" cx="40" cy="17" r="2"></circle><path class="cls-4" d="M19,12.87v2.13c0,2.21,1.79,4,4,4h8c2.21,0,4-1.79,4-4v-2.13l-8,2.13-8-2.13Z"></path><polygon class="cls-3" points="27 15 12 11 27 3 42 11 27 15"></polygon></g></svg>