<?xml version="1.0"?>
<svg width="600" height="400" xmlns="http://www.w3.org/2000/svg" xmlns:svg="http://www.w3.org/2000/svg" xmlns:xlink="http://www.w3.org/1999/xlink" version="1.1" xml:space="preserve">
 <style>.st0{fill:#2aa7c0}.st1,.st2{enable-background:new}.st1{opacity:.6;fill:#fff}.st2{fill:#2aa7c0}.st3{opacity:.3;fill:#fff}.st4,.st5{opacity:.6;fill:#fff}.st5{opacity:.9}.st6{opacity:.2}.st7{fill:#fff}.st8{fill:#69d3ed}.st9{opacity:.2;fill:#fff}.st10{opacity:.3}.st11{fill:#ebeaeb}.st12{opacity:.5;fill:#fff}.st13{fill:#b9b8b9}.st14{opacity:.7;fill:#fff}.st15{fill:#00738b}.st16{opacity:.1}.st17{fill:#5a595c}.st19{opacity:.2;enable-background:new}.st20{opacity:.4;fill:#fff}.st21{fill:none;stroke:#1e2e34;stroke-width:.699;stroke-linecap:round;stroke-linejoin:round;stroke-miterlimit:10}.st23{opacity:.1;enable-background:new}.st24{fill:#519fb7}.st26{fill:#f2b77d}.st27{opacity:.4;fill:#fff;enable-background:new}.st28{fill:#de8c4e}.st29{fill:none;stroke:#000;stroke-width:1.3531;stroke-linecap:round;stroke-linejoin:round;stroke-miterlimit:10}.st30{fill:#ea6359}.st33{opacity:.2}.st33,.st34,.st35{fill:#fff;enable-background:new}.st35{opacity:.1}.st36{opacity:.45;fill:#fff}.st39{fill:#ee8f80}.st42{fill:none;stroke:#000;stroke-width:.5;stroke-linecap:round;stroke-linejoin:round;stroke-miterlimit:10}</style>
 <g class="layer">
  <title>Layer 1</title>
  <path class="st0" d="m312.3,243.01l-49.93,0.25l-0.08,12.17l50.01,0l0,-12.42z" id="svg_1"/>
  <path class="st1" d="m262.35,243.01l49.96,0l0,12.42l-49.96,0l0,-12.42z" id="svg_2" transform="rotate(-180 287.323 249.216)"/>
  <path class="st1" d="m262.29,243.01l38.34,0l0,12.42l-38.34,0l0,-12.42z" id="svg_3"/>
  <path class="st2" d="m302.14,243.26l-39.77,0l0,1.26l38.91,0l0.86,-1.26zm9.87,5.08l-49.64,0.47l0,0.36l49.64,0l0,-0.83zm-49.64,5.75l49.64,-2.42l0,0.37l-49.64,2.88l0,-0.83zm0,-4.67l49.64,0.99l0,0.36l-49.64,-0.52l0,-0.83z" id="svg_4"/>
  <path class="st0" d="m312.64,256.09l0,7.9c0.96,0 0.96,1.51 0,1.51c-2.97,0 -5.95,0.02 -8.92,0.04l0,-10.97l8.92,0c0.96,0 0.96,1.52 0,1.52z" id="svg_5"/>
  <path class="st3" d="m312.64,256.09l0,7.9c0.96,0 0.96,1.51 0,1.51c-2.97,0 -5.95,0.02 -8.92,0.04l0,-10.97l8.92,0c0.96,0 0.96,1.52 0,1.52z" id="svg_6"/>
  <path class="st0" d="m305.71,256.1l6.93,0l0,7.89l-6.93,0l0,-7.89z" id="svg_7"/>
  <path class="st4" d="m305.71,256.1l6.93,0l0,7.89l-6.93,0l0,-7.89z" id="svg_8"/>
  <path class="st0" d="m307.16,255.33l-38.26,0c-1.65,0 -2.99,2.11 -2.99,4.71s1.34,4.71 2.99,4.71l38.26,0l0,-9.42z" id="svg_9"/>
  <path class="st5" d="m307.16,255.33l-38.26,0c-1.65,0 -2.99,2.11 -2.99,4.71s1.34,4.71 2.99,4.71l38.26,0l0,-9.42z" id="svg_10"/>
  <g id="svg_11">
   <path class="st0" d="m307.16,265.5c-7.87,0 -29.98,0.14 -37.85,0c-5.39,-0.1 -5.68,-10.56 -0.39,-10.93c3.68,-0.26 7.47,0 11.16,0l27.07,0c0.96,0 0.96,1.51 0,1.51l-36.6,0c-1.73,0 -2.96,0.02 -3.63,2.08c-0.58,1.79 -0.4,5.43 1.97,5.82c0.25,0.04 0.55,0 0.81,0l37.46,0c0.96,0.01 0.96,1.52 0,1.52z" id="svg_12"/>
  </g>
  <g class="st6" id="svg_13">
   <path class="st7" d="m307.16,265.5c-7.87,0 -29.98,0.14 -37.85,0c-5.39,-0.1 -5.68,-10.56 -0.39,-10.93c3.68,-0.26 7.47,0 11.16,0l27.07,0c0.96,0 0.96,1.51 0,1.51l-36.6,0c-1.73,0 -2.96,0.02 -3.63,2.08c-0.58,1.79 -0.4,5.43 1.97,5.82c0.25,0.04 0.55,0 0.81,0l37.46,0c0.96,0.01 0.96,1.52 0,1.52z" id="svg_14"/>
  </g>
  <g id="svg_15">
   <path class="st0" d="m304.4,266.75l0,7.32c0.89,0 0.89,1.4 0,1.4c-2.75,0 -5.51,0.02 -8.26,0.04l0,-10.16l8.26,0c0.89,0 0.89,1.4 0,1.4z" id="svg_16"/>
   <path class="st3" d="m304.4,266.75l0,7.32c0.89,0 0.89,1.4 0,1.4c-2.75,0 -5.51,0.02 -8.26,0.04l0,-10.16l8.26,0c0.89,0 0.89,1.4 0,1.4z" id="svg_17"/>
   <path class="st0" d="m297.98,266.76l6.42,0l0,7.31l-6.42,0l0,-7.31z" id="svg_18"/>
   <path class="st4" d="m297.98,266.76l6.42,0l0,7.31l-6.42,0l0,-7.31z" id="svg_19"/>
   <path class="st0" d="m299.33,266.05l-35.44,0c-1.53,0 -2.77,1.95 -2.77,4.36s1.24,4.36 2.77,4.36l35.44,0l0,-8.72z" id="svg_20"/>
   <path class="st5" d="m299.33,266.05l-35.44,0c-1.53,0 -2.77,1.95 -2.77,4.36s1.24,4.36 2.77,4.36l35.44,0l0,-8.72z" id="svg_21"/>
   <g id="svg_22">
    <path class="st0" d="m299.33,275.48c-7.29,0 -27.76,0.13 -35.05,0c-4.99,-0.09 -5.26,-9.78 -0.36,-10.12c3.41,-0.24 6.92,0 10.34,0l25.07,0c0.89,0 0.89,1.4 0,1.4l-33.9,0c-1.6,0 -2.74,0.02 -3.36,1.93c-0.53,1.65 -0.37,5.03 1.82,5.39c0.24,0.04 0.51,0 0.75,0l34.68,0c0.9,-0.01 0.9,1.4 0.01,1.4z" id="svg_23"/>
   </g>
  </g>
  <g id="svg_24">
   <path class="st0" d="m315.43,277.02l0,8.71c1.06,0 1.06,1.67 0,1.67c-3.28,0 -6.56,0.02 -9.83,0.04l0,-12.09l9.83,0c1.06,0 1.06,1.67 0,1.67z" id="svg_25"/>
   <path class="st3" d="m315.43,277.02l0,8.71c1.06,0 1.06,1.67 0,1.67c-3.28,0 -6.56,0.02 -9.83,0.04l0,-12.09l9.83,0c1.06,0 1.06,1.67 0,1.67z" id="svg_26"/>
   <path class="st0" d="m307.79,277.03l7.64,0l0,8.7l-7.64,0l0,-8.7z" id="svg_27"/>
   <path class="st4" d="m307.79,277.03l7.64,0l0,8.7l-7.64,0l0,-8.7z" id="svg_28"/>
   <path class="st0" d="m309.39,276.18l-42.17,0c-1.82,0 -3.3,2.32 -3.3,5.19c0,2.87 1.48,5.19 3.3,5.19l42.17,0l0,-10.38z" id="svg_29"/>
   <path class="st5" d="m309.39,276.18l-42.17,0c-1.82,0 -3.3,2.32 -3.3,5.19c0,2.87 1.48,5.19 3.3,5.19l42.17,0l0,-10.38z" id="svg_30"/>
   <g id="svg_31">
    <path class="st0" d="m309.39,287.4c-8.67,0 -33.04,0.16 -41.71,0c-5.94,-0.11 -6.26,-11.64 -0.43,-12.05c4.06,-0.28 8.24,0 12.3,0l29.84,0c1.06,0 1.06,1.67 0,1.67l-40.34,0c-1.9,0 -3.26,0.02 -4,2.3c-0.64,1.97 -0.44,5.98 2.17,6.42c0.28,0.05 0.61,0 0.89,0l41.28,0c1.06,-0.01 1.06,1.66 0,1.66z" id="svg_32"/>
   </g>
   <g class="st6" id="svg_33">
    <path d="m309.39,287.4c-8.67,0 -33.04,0.16 -41.71,0c-5.94,-0.11 -6.26,-11.64 -0.43,-12.05c4.06,-0.28 8.24,0 12.3,0l29.84,0c1.06,0 1.06,1.67 0,1.67l-40.34,0c-1.9,0 -3.26,0.02 -4,2.3c-0.64,1.97 -0.44,5.98 2.17,6.42c0.28,0.05 0.61,0 0.89,0l41.28,0c1.06,-0.01 1.06,1.66 0,1.66z" id="svg_34"/>
   </g>
  </g>
  <g id="svg_35">
   <path class="st8" d="m344.14,270.23l0,-1.08a0.87,0.87 0 0 0 -0.87,-0.87l-10.74,0a0.87,0.87 0 0 0 -0.87,0.87l0,16.76l12.48,0l0,-1.94c2.72,0 4.84,-3.02 4.84,-6.87s-2.12,-6.87 -4.84,-6.87zm0,12l0,-10.24c1.68,0 3.09,2.35 3.09,5.12s-1.41,5.12 -3.09,5.12z" id="svg_36"/>
   <path class="st9" d="m344.14,270.23l0,-1.08a0.87,0.87 0 0 0 -0.87,-0.87l-10.74,0a0.87,0.87 0 0 0 -0.87,0.87l0,16.76l12.48,0l0,-1.94c2.72,0 4.84,-3.02 4.84,-6.87s-2.12,-6.87 -4.84,-6.87zm0,12l0,-10.24c1.68,0 3.09,2.35 3.09,5.12s-1.41,5.12 -3.09,5.12z" id="svg_37"/>
   <path class="st10" d="m344.14,271.98l-1.42,0l1.42,3.94l0,-3.94zm0,12l-1.42,0l1.42,0.66l0,-0.66z" id="svg_38"/>
  </g>
  <g id="svg_39">
   <path class="st11" d="m188,86.27l221.04,0l0,150.11l-221.04,0l0,-150.11z" id="svg_40"/>
   <path class="st12" d="m187.52,86.27l221.04,0l0,150.11l-221.04,0l0,-150.11z" id="svg_41"/>
   <path class="st13" d="m188,86.27l0,10.35l31.99,0l0,-3.97c0,-1.97 1.6,-3.57 3.57,-3.57l29.6,0c1.97,0 3.58,1.6 3.58,3.57l0,3.97l152.3,0l0,-10.35l-221.04,0z" id="svg_42"/>
   <path class="st14" d="m197.22,91.45a2.38,2.38 0 1 1 -4.76,0a2.38,2.38 0 1 1 4.76,0z" id="svg_43"/>
   <circle class="st14" cx="201.97" cy="91.45" id="svg_44" r="2.38"/>
   <path class="st14" d="m211.47,91.45a2.38,2.38 0 0 1 -2.38,2.38a2.37,2.37 0 0 1 -2.37,-2.38c0,-1.31 1.06,-2.38 2.37,-2.38a2.38,2.38 0 0 1 2.38,2.38zm17.87,2.37a2.37,2.37 0 0 1 -2.38,2.37c-1.31,0 -2.37,-1.06 -2.37,-2.37s1.06,-2.38 2.37,-2.38c1.32,0.01 2.38,1.07 2.38,2.38z" id="svg_45"/>
   <path class="st9" d="m188,116.86l221.04,0l0,119.53l-221.04,0l0,-119.53z" id="svg_46"/>
   <g id="svg_47">
    <path class="st7" d="m377.85,113.53l15.06,0l0,33.91l-15.06,0l0,-33.91zm-18.41,0l15.06,0l0,33.91l-15.06,0l0,-33.91z" id="svg_48"/>
    <path class="st15" d="m357.18,152.27l37.57,0l0,9.21l-37.57,0l0,-9.21z" id="svg_49"/>
    <path class="st16" d="m357.18,152.27l37.57,0l0,9.21l-37.57,0l0,-9.21z" id="svg_50"/>
    <path class="st15" d="m357.18,166.82l37.57,0l0,9.21l-37.57,0l0,-9.21z" id="svg_51"/>
    <path class="st16" d="m357.18,166.82l37.57,0l0,9.21l-37.57,0l0,-9.21z" id="svg_52"/>
    <path class="st15" d="m357.18,182.78l37.57,0l0,9.21l-37.57,0l0,-9.21z" id="svg_53"/>
    <path class="st16" d="m357.18,182.78l37.57,0l0,9.21l-37.57,0l0,-9.21z" id="svg_54"/>
    <path class="st15" d="m357.18,211.62l37.57,0l0,9.21l-37.57,0l0,-9.21z" id="svg_55"/>
    <path class="st16" d="m357.18,211.62l37.57,0l0,9.21l-37.57,0l0,-9.21z" id="svg_56"/>
    <path class="st17" d="m233.74,92.91l17.84,0l0,1.82l-17.84,0l0,-1.82z" id="svg_57"/>
    <path d="m353.86,104.75l44.37,0l0,123.14l-44.37,0l0,-123.14z" fill="none" id="svg_58" stroke="#5a595c" stroke-miterlimit="10" stroke-width="1.17"/>
   </g>
  </g>
  <g id="svg_59">
   <path d="m340.53,166.5l-82.05,0l0,-46l0.66,0l0,45.34l81.39,0l0,0.66z" id="svg_60"/>
   <path class="st19" d="m262.77,158.87l3.55,0l0,6.65l-3.55,0l0,-6.65z" id="svg_61"/>
   <path class="st15" d="m262.77,158.87l3.55,0l0,1.93l-3.55,0l0,-1.93z" id="svg_62"/>
   <path class="st19" d="m270.01,148.23l3.55,0l0,17.28l-3.55,0l0,-17.28z" id="svg_63"/>
   <path class="st15" d="m270.01,148.23l3.55,0l0,5.03l-3.55,0l0,-5.03z" id="svg_64"/>
   <path class="st19" d="m277.25,152.22l3.55,0l0,13.29l-3.55,0l0,-13.29z" id="svg_65"/>
   <path class="st15" d="m277.25,152.22l3.55,0l0,3.87l-3.55,0l0,-3.87z" id="svg_66"/>
   <path class="st19" d="m284.49,146.11l3.55,0l0,19.4l-3.55,0l0,-19.4z" id="svg_67"/>
   <path class="st15" d="m284.49,146.11l3.55,0l0,5.65l-3.55,0l0,-5.65z" id="svg_68"/>
   <path class="st19" d="m291.73,140.47l3.55,0l0,25.04l-3.55,0l0,-25.04z" id="svg_69"/>
   <path class="st15" d="m291.73,140.47l3.55,0l0,7.29l-3.55,0l0,-7.29z" id="svg_70"/>
   <path class="st19" d="m298.97,136.2l3.55,0l0,29.31l-3.55,0l0,-29.31z" id="svg_71"/>
   <path class="st15" d="m298.97,136.2l3.55,0l0,8.53l-3.55,0l0,-8.53z" id="svg_72"/>
   <g id="svg_73">
    <path class="st19" d="m306.21,141.14l3.55,0l0,24.37l-3.55,0l0,-24.37z" id="svg_74"/>
    <path class="st15" d="m306.21,141.14l3.55,0l0,7.1l-3.55,0l0,-7.1z" id="svg_75"/>
   </g>
   <g id="svg_76">
    <path class="st19" d="m313.45,140.07l3.55,0l0,25.44l-3.55,0l0,-25.44z" id="svg_77"/>
    <path class="st15" d="m313.45,140.07l3.55,0l0,7.41l-3.55,0l0,-7.41z" id="svg_78"/>
   </g>
   <g id="svg_79">
    <path class="st19" d="m320.7,133.58l3.55,0l0,31.93l-3.55,0l0,-31.93z" id="svg_80"/>
    <path class="st15" d="m320.7,133.58l3.55,0l0,9.3l-3.55,0l0,-9.3z" id="svg_81"/>
   </g>
   <g id="svg_82">
    <path class="st19" d="m327.94,127.04l3.55,0l0,38.47l-3.55,0l0,-38.47z" id="svg_83"/>
    <path class="st15" d="m327.94,127.04l3.55,0l0,11.2l-3.55,0l0,-11.2z" id="svg_84"/>
   </g>
   <g id="svg_85">
    <path class="st19" d="m335.18,121.32l3.55,0l0,44.19l-3.55,0l0,-44.19z" id="svg_86"/>
    <path class="st15" d="m335.18,121.32l3.55,0l0,12.87l-3.55,0l0,-12.87z" id="svg_87"/>
   </g>
   <path class="st19" d="m277.25,113.55l43.91,0l0,1.83l-43.91,0l0,-1.83z" id="svg_88"/>
  </g>
  <g id="svg_89">
   <circle class="st17" cx="274.53" cy="206.78" id="svg_90" r="19.39" transform="rotate(-51.822 274.54 206.777)"/>
   <path class="st15" d="m274.53,206.78l0.27,-19.39c10.64,0.15 19.27,9.02 19.12,19.66c-0.15,10.64 -9.02,19.27 -19.66,19.12a19.39,19.39 0 0 1 -13.84,-6.09l14.11,-13.3z" id="svg_91"/>
   <path class="st12" d="m274.53,206.78l0.27,-19.39a19.37,19.37 0 0 1 14.92,7.34l-15.19,12.05z" id="svg_92"/>
   <path class="st20" d="m274.53,206.78l-5.02,-18.73c1.64,-0.44 3.32,-0.66 5.02,-0.66c10.64,0 19.39,8.75 19.39,19.39c0,1.01 -0.08,2.01 -0.24,3.01l-19.15,-3.01z" id="svg_93"/>
   <circle class="st7" cx="274.53" cy="206.78" id="svg_94" r="10.3"/>
  </g>
  <g id="svg_95">
   <path class="st21" d="m311.42,190.45l24.71,0m-24.71,8.16l20.51,0m-20.51,8.17l28.9,0m-28.9,8.16l24.71,0m-24.71,8.16l26.11,0" id="svg_96"/>
   <path class="st17" d="m300.54,188.03l4.98,0l0,4.84l-4.98,0l0,-4.84zm0,8.16l4.98,0l0,4.84l-4.98,0l0,-4.84z" id="svg_97"/>
   <path class="st15" d="m300.54,204.36l4.98,0l0,4.84l-4.98,0l0,-4.84zm0,8.16l4.98,0l0,4.84l-4.98,0l0,-4.84zm0,8.16l4.98,0l0,4.84l-4.98,0l0,-4.84z" id="svg_98"/>
   <path class="st20" d="m300.54,196.19l4.98,0l0,4.84l-4.98,0l0,-4.84zm0,16.33l4.98,0l0,4.84l-4.98,0l0,-4.84z" id="svg_99"/>
   <path class="st4" d="m300.54,220.68l4.98,0l0,4.84l-4.98,0l0,-4.84z" id="svg_100"/>
  </g>
  <g id="svg_101">
   <path class="st15" d="m218.54,99.08l7.13,0l0,130.49l-7.13,0l0,-130.49z" id="svg_102"/>
   <path class="st19" d="m218.54,99.08l7.13,0l0,130.49l-7.13,0l0,-130.49z" id="svg_103"/>
   <path class="st17" d="m230.39,128.06l7.13,0l0,101.51l-7.13,0l0,-101.51z" id="svg_104"/>
   <path class="st20" d="m230.39,128.06l7.13,0l0,101.51l-7.13,0l0,-101.51z" id="svg_105"/>
   <path class="st15" d="m194.85,176.36l7.13,0l0,53.22l-7.13,0l0,-53.22zm11.84,-19.32l7.13,0l0,72.53l-7.13,0l0,-72.53z" id="svg_106"/>
   <path class="st13" d="m242.23,118.4l7.13,0l0,111.17l-7.13,0l0,-111.17z" id="svg_107"/>
   <path class="st20" d="m230.39,141.14l7.13,0l0,88.43l-7.13,0l0,-88.43zm11.84,-5.44l7.13,0l0,93.87l-7.13,0l0,-93.87z" id="svg_108"/>
   <path class="st15" d="m218.54,110.59l7.13,0l0,118.98l-7.13,0l0,-118.98z" id="svg_109"/>
   <path class="st20" d="m206.69,182.77l7.13,0l0,46.8l-7.13,0l0,-46.8z" id="svg_110"/>
   <path class="st9" d="m194.85,176.36l7.13,0l0,53.22l-7.13,0l0,-53.22z" id="svg_111"/>
   <path class="st20" d="m194.85,188.46l7.13,0l0,41.11l-7.13,0l0,-41.11z" id="svg_112"/>
  </g>
  <g id="svg_113">
   <path class="st8" d="m328.06,285.49l0,-3.38l2.27,0l-2.27,-1.32l1.7,0l-2.27,-1.49l-2.14,0l0,-1.7l2.49,0l-2.49,-0.99l0,-3.69l2.49,0l0,-2.41l2.49,0l-2.49,-0.84l0,-1.71l1.78,0l-1.46,-1.46l-1.26,-1.26l-38.63,0l0,1.73l-2.56,0l2.84,1.27l0,1.43l-5.21,0l0,2.67l-2.31,0l2.31,1.15l0,2.98l1.64,0l0,1.42l3.29,0l0,4.22l-1.85,0l1.51,1.51l0,1.88l40.13,-0.01z" id="svg_114"/>
   <path d="m328.06,285.49l0,-3.38l2.27,0l-2.27,-1.32l1.7,0l-2.27,-1.49l-2.14,0l0,-1.7l2.49,0l-2.49,-0.99l0,-3.69l2.49,0l0,-2.41l2.49,0l-2.49,-0.84l0,-1.71l1.78,0l-1.46,-1.46l-1.26,-1.26l-38.63,0l0,1.73l-2.56,0l2.84,1.27l0,1.43l-5.21,0l0,2.67l-2.31,0l2.31,1.15l0,2.98l1.64,0l0,1.42l3.29,0l0,4.22l-1.85,0l1.51,1.51l0,1.88l40.13,-0.01z" fill="#fff" id="svg_115" opacity="0.7"/>
   <path class="st23" d="m328.06,285.49l0,-3.38l2.27,0l-2.27,-1.32l1.7,0l-2.27,-1.49l-2.14,0l0,-1.7l2.49,0l-2.49,-0.99l0,-3.69l2.49,0l0,-2.41l2.49,0l-2.49,-0.84l0,-1.71l1.78,0l-1.46,-1.46l-1.26,-1.26l-20.35,0l0,1.73l-2.55,0l2.83,1.27l0,1.43l-5.21,0l0,2.67l-2.3,0l2.3,1.15l0,2.98l1.64,0l0,1.42l3.29,0l0,4.22l-1.84,0l1.5,1.51l0,1.88l21.85,-0.01z" id="svg_116"/>
   <path class="st23" d="m288.55,269.67l18.28,0l-18.28,-0.66l0,0.66zm-0.28,8.22l18.28,0l0.08,1.27l-18.36,-1.27zm-3.29,-1.42l18.28,0l-18.28,0.64l0,-0.64zm3.29,5.64l18.28,0l-18.28,-0.68l0,0.68zm-0.34,1.51l18.28,0l0,0.69l-18.28,-0.69zm-4.59,-11.28l18.28,0l-18.28,-0.59l0,0.59zm4.93,-5.37l18.28,0l-18.28,-0.64l0,0.64zm39.57,0.99l-18.55,0l18.55,0.57l0,-0.57zm-21.01,1.71l21.01,0l-19.04,0.63l-1.97,-0.63zm-5.21,2.67l26.22,0.58l0,-0.58l-26.22,0zm0,1.15l12.97,0l-12.97,0.64l0,-0.64zm23.73,3.12l-18.8,-0.14l18.8,-0.43l0,0.57zm0,0.99l-19.14,0l19.14,0.64l0,-0.64zm2.71,3.19l-21.23,0l0,0.64l21.23,-0.64zm0,1.32l-15.38,0l15.38,0.42l0,-0.42z" id="svg_117"/>
  </g>
  <g id="svg_126">
   <defs>
    <path d="m188,37.6l263.83,0l0,198.78l-263.83,0l0,-198.78z" id="SVGID_1_"/>
   </defs>
   <clipPath id="SVGID_00000182499362170701698350000002395864479818358661_">
    <use id="svg_127" overflow="visible" xlink:href="#SVGID_1_"/>
   </clipPath>
   <g clip-path="url(#SVGID_00000182499362170701698350000002395864479818358661_)" id="svg_128">
    <path class="st26" d="m320.27,173.33l-8.68,-4.26s-2.59,-5.71 -2.77,-5.62c-0.18,0.09 -16.62,-3.39 -16.62,-3.39s-0.18,9.7 1.66,11.76c1.85,2.06 13.11,3.02 13.67,3.37c0.55,0.35 1.85,-0.81 1.85,-0.81l9.23,6.06l1.66,-7.11z" id="svg_129"/>
    <path d="m415.13,100.28s-3.6,-8.31 -15.23,-8.31s-21.33,6.92 -20.77,15.79c0.55,8.86 -6.09,8.03 -7.2,16.62s3.05,10.8 3.32,14.4c0.28,3.6 -4.43,2.49 -7.48,8.59c-3.05,6.09 -6.92,14.68 6.09,26.04c13.02,11.36 49.86,9.42 57.89,2.49c8.03,-6.92 7.76,-20.22 0,-23.82c-7.76,-3.6 -0.55,-3.05 0.28,-11.08c0.83,-8.03 -6.37,-11.08 -5.82,-17.45c0.55,-6.37 2.49,-22.71 -11.08,-23.27z" id="svg_130"/>
    <path class="st8" d="m369.92,154.18l0,22.84s-1.96,2.45 -4.89,5.59c-2.77,2.97 -6.44,6.55 -10.12,9.23c-3.5,2.53 -7.03,4.27 -9.89,3.91c-9.05,-1.16 -33.43,-15.18 -33.43,-15.18l4.06,-10.77s27.7,14.24 29.37,12.77c1.67,-1.48 19.87,-27.09 24.9,-28.39z" id="svg_131"/>
    <path class="st19" d="m365.03,182.61c-2.77,2.97 -6.44,6.55 -10.12,9.23c-1.32,-10.19 10.38,-22.77 10.38,-22.77s0.16,6.54 -0.26,13.54z" id="svg_132"/>
    <path class="st26" d="m373.12,236.9s-15.18,80.89 -19.23,114.1c-5.29,43.33 -26.93,106.71 -26.93,106.71l8.65,2.24s30.5,-53.86 36.45,-102.33c24.23,-49.53 26.18,-110.52 26.18,-110.52l-25.12,-10.2z" id="svg_133"/>
    <path class="st26" d="m388.88,235.61s1.88,82.28 4.79,115.61c3.79,43.48 -4.27,109.97 -4.27,109.97l8.93,0.4s18.7,-59.01 14.49,-107.65c13.46,-53.47 2.76,-113.55 2.76,-113.55l-26.7,-4.78z" id="svg_134"/>
    <path class="st13" d="m367.92,223.4s-6.01,59.88 -14.93,119.92c-8.13,54.66 -24.01,100.83 -24.01,100.83l17.73,1.48s33.98,-84.21 44.32,-132.96c0,0 3.69,86.42 -2.22,134.44l15.51,-0.74s37.85,-162.64 9.6,-221.23l-46,-1.74z" id="svg_135"/>
    <path class="st27" d="m404.33,446.37l-15.52,0.73c5.91,-48 2.23,-134.44 2.23,-134.44c-2.62,12.31 -6.74,26.86 -11.43,41.76c-13.91,44.13 -32.89,91.21 -32.89,91.21l-17.73,-1.48s15.88,-46.16 24,-100.83c8.93,-60.03 14.94,-119.91 14.94,-119.91l46,1.74c28.25,58.56 -9.6,221.22 -9.6,221.22z" id="svg_136"/>
    <path class="st19" d="m391.04,312.66c-2.62,12.31 -6.74,26.86 -11.43,41.76c-1.79,-28.04 5.34,-78.32 5.34,-78.32l6.09,36.56z" id="svg_137"/>
    <path d="m413.83,222.22l0.13,6.77l-46.27,-2.67l-0.16,-8l46.3,3.9z" id="svg_138"/>
    <path class="st7" d="m377.96,220.11l10.15,0l0,7.69l-10.15,0l0,-7.69z" id="svg_139" transform="rotate(-175.948 383.046 223.955)"/>
    <path class="st7" d="m398.08,219.71l2.29,0l0,11.69l-2.29,0l0,-11.69z" id="svg_140" transform="rotate(-178.188 399.216 225.557)"/>
    <path class="st27" d="m398.08,219.71l2.29,0l0,11.69l-2.29,0l0,-11.69z" id="svg_141" transform="rotate(-178.188 399.216 225.557)"/>
    <path class="st7" d="m369.79,217.14l2.29,0l0,11.69l-2.29,0l0,-11.69z" id="svg_142" transform="rotate(-178.188 370.94 222.977)"/>
    <path class="st17" d="m367.63,219.18l46.2,3.05c0.73,-11.48 1.56,-15.01 5.02,-28.71c1.11,-4.43 2.49,-9.37 4.27,-15.08c0.95,-3.05 2,-6.33 3.18,-9.86c0.88,-2.67 1.83,-5.52 2.88,-8.51c-6.29,-2 -12.69,-3.56 -19.18,-4.64c-6.85,-1.22 -13.79,-1.95 -20.75,-2.18c-8.99,-0.07 -19.33,0.94 -19.33,0.94s-1.47,0.35 -2.39,9.89c-0.85,8.94 -1.75,22.54 0.1,55.1z" id="svg_143"/>
    <path class="st27" d="m367.63,219.18l46.2,3.05c0.73,-11.48 1.56,-15.01 5.02,-28.71c1.11,-4.43 2.49,-9.37 4.27,-15.08c0.95,-3.05 2,-6.33 3.18,-9.86c0.88,-2.67 1.83,-5.52 2.88,-8.51c-6.29,-2 -12.69,-3.56 -19.18,-4.64c-6.85,-1.22 -13.79,-1.95 -20.75,-2.18c-8.99,-0.07 -19.33,0.94 -19.33,0.94s-1.47,0.35 -2.39,9.89c-0.85,8.94 -1.75,22.54 0.1,55.1z" id="svg_144"/>
    <path class="st26" d="m393.06,163.45c11.39,-1.46 14.81,-6.32 14.81,-6.32c-7.23,-6.82 -1.22,-18.64 -1.22,-18.64l-13.71,2.56c0.36,2.27 0.51,4.17 0.54,5.77c0.1,8.32 -3.66,8.4 -3.66,8.4c-2.41,4.51 3.24,8.23 3.24,8.23z" id="svg_145"/>
    <path class="st19" d="m392.94,141.05c0.36,2.27 0.51,4.17 0.54,5.77c9.26,0 13.18,-8.33 13.18,-8.33l-13.72,2.56z" id="svg_146"/>
    <g id="svg_147">
     <path class="st26" d="m400.52,102.71c-11.92,-0.65 -16.11,5.52 -17.65,17.75c-1.93,15.29 0.87,26.38 15.96,23.92c20.48,-3.34 21.48,-40.59 1.69,-41.67z" id="svg_148"/>
     <path class="st28" d="m390.61,120.22s-1.82,3.02 -3.74,4.75c0,0 0.93,1.68 3.07,1.52l0.67,-6.27z" id="svg_149"/>
     <path d="m397.95,119.64c-0.08,0.98 0.39,1.81 1.04,1.86c0.65,0.05 1.24,-0.7 1.32,-1.68c0.08,-0.98 -0.39,-1.81 -1.04,-1.86c-0.65,-0.05 -1.24,0.71 -1.32,1.68z" id="svg_150"/>
     <path d="m399.54,118.03l-2.06,-1s0.92,1.88 2.06,1zm-13.73,0.46c-0.08,0.98 0.39,1.81 1.04,1.86c0.65,0.05 1.24,-0.7 1.32,-1.68c0.08,-0.98 -0.39,-1.81 -1.04,-1.86c-0.65,-0.05 -1.24,0.7 -1.32,1.68z" id="svg_151"/>
     <path d="m387.4,116.88l-2.06,-1s0.92,1.87 2.06,1z" id="svg_152"/>
     <path class="st29" d="m398.53,111.42s3.37,-0.25 5.07,2.09m-13.71,-3.07s-2.06,-0.89 -4.8,0.72" id="svg_153"/>
     <path class="st17" d="m391.42,131.28c0.61,1.47 1.16,4.22 1.16,4.22c0.26,-0.01 0.51,-0.01 0.77,-0.03c3.49,-0.16 5.05,-1.39 5.73,-2.7c0.37,-0.72 0.46,-1.47 0.46,-2.08c0,-0.71 -0.16,-1.21 -0.16,-1.21c-1.8,1.19 -5.04,1.59 -6.78,1.73c-0.72,0.06 -1.18,0.07 -1.18,0.07z" id="svg_154"/>
     <path class="st7" d="m392.6,131.2l0.38,1.23c3.29,-0.16 5.58,-0.71 6.56,-1.76c0,-0.71 -0.16,-1.21 -0.16,-1.21c-1.79,1.2 -5.04,1.6 -6.78,1.74z" id="svg_155"/>
     <path class="st30" d="m393.35,135.46c3.49,-0.16 5.05,-1.39 5.73,-2.7c-1.19,0.1 -2.61,0.35 -3.84,0.95c-0.94,0.45 -1.52,1.1 -1.89,1.75z" id="svg_156"/>
     <path d="m412.44,123.51s-5.04,-10.1 -3.78,-17.61c0,0 -23.09,-10.94 -25.57,12.97c0,0 -1.14,-21.41 19.37,-20.77c20.48,0.65 18.79,30.62 7.72,38.97c0,0 5.37,-7.24 2.26,-13.56z" id="svg_157"/>
     <path d="m413.65,101.58s-9.33,-8.31 -17.82,-6.74c-8.49,1.57 -7.02,12.74 4.16,16.99c11.17,4.25 13.48,9.69 13.48,9.69l9.69,-8.68l-9.51,-11.26z" id="svg_158"/>
     <path d="m393.34,98.33s-3.97,0.28 -2.86,6.19c1.11,5.91 9.51,8.88 17.45,11.65c7.94,2.77 7.29,5.89 7.29,5.89" fill="none" id="svg_159" stroke="#000" stroke-miterlimit="10" stroke-width="0.93"/>
     <path class="st26" d="m410.36,125.92c0.18,-1.91 2.34,-5.05 5.89,-4.47c3.67,0.61 5.02,8.28 -4.27,9.6c-1.34,0.2 -2.01,-1.13 -1.62,-5.13z" id="svg_160"/>
    </g>
    <path class="st26" d="m418.43,158.39s-13.38,10.85 -25.83,10.68c-12.45,-0.17 -16.83,-14.18 -16.83,-14.18s19.32,-5.72 42.66,3.5z" id="svg_161"/>
    <g id="svg_162">
     <path class="st8" d="m429.18,160.06l-6.02,72.11l-12.91,1.08c-1.9,-9.8 -2.24,-25.29 -1.99,-39.88l0,-0.01c0.34,-19.8 1.74,-37.92 1.74,-37.92c7.17,0.74 19.18,4.62 19.18,4.62z" id="svg_163"/>
     <path class="st27" d="m412.06,173.52l3.49,5.35l-7.28,14.48c0.34,-19.8 1.74,-37.92 1.74,-37.92l11.1,10.33l-9.05,7.76z" id="svg_164"/>
    </g>
    <g id="svg_165">
     <path class="st8" d="m385.08,153.13l-0.01,0.01c-0.29,0.53 -6.72,12.21 -11.83,34.59c-2.53,11.12 -4.73,24.9 -5.7,41.25l-4.93,-2.28s-2.32,-55.85 7.31,-72.53l15.16,-1.04z" id="svg_166"/>
     <path class="st27" d="m385.07,153.14c-0.29,0.53 -6.72,12.21 -11.83,34.59l-2.3,-14.41l4.83,-4.26l-4.83,-9.21l14.13,-6.71z" id="svg_167"/>
    </g>
    <g id="svg_168">
     <path class="st8" d="m447.88,203.61c-1.44,3.09 -3.92,3.39 -6.47,2.13c-2.02,-0.99 -4.09,-2.98 -5.71,-5.32c-1.16,-1.67 -2.72,-4.17 -4.31,-6.82c-3.42,-5.73 -6.97,-12.09 -6.97,-12.09l4.78,-21.45c6.86,3.29 21.25,38.01 18.68,43.55z" id="svg_169"/>
     <path class="st19" d="m441.41,205.74c-2.02,-0.99 -4.09,-2.98 -5.71,-5.32c-1.16,-1.67 -2.72,-4.17 -4.31,-6.82c1.96,-3.6 4.05,-6.44 4.05,-6.44l3.47,9.76s6.09,1.39 7.06,4.57c0.35,1.2 -1.72,2.91 -4.56,4.25z" id="svg_170"/>
    </g>
    <g id="svg_171">
     <path class="st8" d="m443.68,213.95c-2.06,1.09 -6.69,-0.56 -8.11,-1.12c-0.28,-0.1 -0.43,-0.17 -0.43,-0.17s-2.53,-8.26 4.06,-12.73c0.04,-0.03 0.1,-0.07 0.15,-0.08c2.1,-1.13 8.61,0.32 8.81,2.52c0.78,8.82 -2.03,10.29 -4.48,11.58z" id="svg_172"/>
     <path class="st19" d="m439.66,206.89c-0.8,2.98 -2.55,4.83 -4.09,5.94c-0.28,-0.1 -0.43,-0.17 -0.43,-0.17s-2.53,-8.26 4.06,-12.73c0.04,-0.03 0.1,-0.07 0.15,-0.08c0.57,0.74 1.47,2.7 0.31,7.04z" id="svg_173"/>
    </g>
    <path class="st26" d="m430.15,196.41s4.23,-0.18 6.18,0c1.95,0.18 1.35,6.44 1.35,6.44l1.67,0.9s1.35,3.69 -1.55,5.54l-1.49,-0.51s-0.42,1.48 -1.62,2.22c-1.2,0.74 -7.11,-0.92 -7.11,-0.92l2.57,-13.67z" id="svg_174"/>
   </g>
  </g>
  <g id="svg_175">
   <defs>
    <path d="m94.66,213.01l422.03,0l0,126.86l-422.03,0l0,-126.86z" id="SVGID_00000051341316860244328740000014523980180833593010_"/>
   </defs>
   <clipPath id="SVGID_00000044867512911646209910000016971931293352912517_">
    <use id="svg_176" overflow="visible" xlink:href="#SVGID_00000051341316860244328740000014523980180833593010_"/>
   </clipPath>
   <g clip-path="url(#SVGID_00000044867512911646209910000016971931293352912517_)" id="svg_177">
    <path class="st17" d="m253.9,284.05l-32.13,0l5.33,-21.08c0.12,-0.46 0.6,-0.83 1.09,-0.83l30.37,0c0.48,0 0.78,0.37 0.67,0.83l-5.33,21.08z" id="svg_178"/>
    <path class="st13" d="m253.66,282.29l-30.76,0l4.68,-18.5l30.76,0l-4.68,18.5z" id="svg_179"/>
    <path class="st1" d="m253.66,282.34l-30.76,0l4.68,-18.5l30.76,0l-4.68,18.5z" id="svg_180"/>
    <path class="st17" d="m239.9,283.37l-32.16,0l0,1.34c0,0.57 0.46,1.04 1.04,1.04l44.08,0c0.57,0 1.04,-0.46 1.04,-1.04l0,-1.34l-14,0z" id="svg_181"/>
    <path class="st1" d="m239.9,283.37l-32.16,0l0,1.34c0,0.57 0.46,1.04 1.04,1.04l44.08,0c0.57,0 1.04,-0.46 1.04,-1.04l0,-1.34l-14,0z" id="svg_182"/>
    <path class="st33" d="m224.84,283.37l0,0.46l-5.6,0l0,-0.46l-11.5,0l0,1.34c0,0.57 0.46,1.04 1.04,1.04l30.09,0c0.57,0 1.04,-0.46 1.04,-1.04l0,-1.34l-15.07,0z" id="svg_183"/>
    <g id="svg_184">
     <path class="st1" d="m241.64,274.71l-14.74,0l2.14,-8.46l14.74,0l-2.14,8.46z" id="svg_185"/>
     <path class="st15" d="m243.65,266.75l-14.74,0l0.13,-0.5l14.74,0l-0.13,0.5z" id="svg_186"/>
    </g>
    <g id="svg_187">
     <path class="st34" d="m252.88,280.97l-20.51,0l2.98,-11.77l20.5,0l-2.97,11.77z" id="svg_188"/>
     <path class="st15" d="m255.68,269.89l-20.51,0l0.18,-0.69l20.5,0l-0.17,0.69z" id="svg_189"/>
    </g>
    <g id="svg_190">
     <path class="st17" d="m461.83,407.99l-4.67,0l-8.38,-116.79l6.19,0l6.86,116.79z" id="svg_191"/>
     <path class="st35" d="m461.84,407.8l-4.67,0l-7.98,-110.98l-0.41,-5.62l6.19,0l0.34,5.62l6.53,110.98z" id="svg_192"/>
     <path class="st19" d="m455.3,296.73l-6.11,0l-0.42,-5.34l6.2,0l0.33,5.34z" id="svg_193"/>
     <path class="st17" d="m330.81,407.99l-4.67,0l6.87,-116.79l6.19,0l-8.39,116.79z" id="svg_194"/>
     <path class="st35" d="m339.2,291.2l-0.41,5.62l-7.98,110.98l-4.67,0l6.53,-110.98l0.33,-5.62l6.2,0z" id="svg_195"/>
     <path class="st19" d="m333,291.39l6.2,0l-0.41,5.34l-6.12,0l0.33,-5.34z" id="svg_196"/>
     <path class="st17" d="m274.12,407.99l-4.67,0l-8.38,-116.79l6.19,0l6.86,116.79z" id="svg_197"/>
     <path class="st35" d="m274.13,407.99l-4.68,0l-7.97,-110.99l-0.42,-5.61l6.2,0l0.34,5.61l6.53,110.99z" id="svg_198"/>
     <path class="st19" d="m267.6,296.73l-6.12,0l-0.42,-5.34l6.2,0l0.34,5.34z" id="svg_199"/>
     <g id="svg_200">
      <path class="st17" d="m153.1,407.99l-4.66,0l6.86,-116.79l6.19,0l-8.39,116.79z" id="svg_201"/>
      <path class="st35" d="m161.49,291.2l-0.41,5.62l-7.98,110.98l-4.66,0l6.52,-110.98l0.33,-5.62l6.2,0z" id="svg_202"/>
      <path class="st19" d="m155.3,291.39l6.19,0l-0.41,5.34l-6.12,0l0.34,-5.34z" id="svg_203"/>
     </g>
     <g id="svg_204">
      <path class="st13" d="m458.17,294.13l-306.08,0c-0.94,0 -1.7,-0.76 -1.7,-1.7l0,-4.15l309.49,0l0,4.15c0,0.94 -0.76,1.7 -1.71,1.7z" id="svg_205"/>
      <path class="st1" d="m457.08,294.13l-306.08,0c-0.94,0 -1.7,-0.76 -1.7,-1.7l0,-4.15l309.49,0l0,4.15c-0.01,0.94 -0.77,1.7 -1.71,1.7z" id="svg_206"/>
     </g>
     <path class="st19" d="m150.39,288.28l309.49,0l0,2.92l-309.49,0l0,-2.92z" id="svg_207"/>
     <g id="svg_208">
      <path class="st13" d="m462.77,289.04l-315.28,0c-0.91,0 -1.65,-0.74 -1.65,-1.65c0,-0.91 0.74,-1.65 1.65,-1.65l315.28,0c0.91,0 1.65,0.74 1.65,1.65c0,0.91 -0.74,1.65 -1.65,1.65z" id="svg_209"/>
      <path class="st1" d="m462.77,289.04l-315.28,0c-0.91,0 -1.65,-0.74 -1.65,-1.65c0,-0.91 0.74,-1.65 1.65,-1.65l315.28,0c0.91,0 1.65,0.74 1.65,1.65c0,0.91 -0.74,1.65 -1.65,1.65z" id="svg_210"/>
     </g>
    </g>
    <g id="svg_211">
     <path class="st17" d="m359.09,284.05l32.13,0l-5.33,-21.08c-0.12,-0.46 -0.6,-0.83 -1.09,-0.83l-30.37,0c-0.48,0 -0.78,0.37 -0.67,0.83l5.33,21.08z" id="svg_212"/>
     <path class="st13" d="m359.33,282.29l30.76,0l-4.67,-18.5l-30.76,0l4.67,18.5z" id="svg_213"/>
     <path class="st1" d="m359.33,282.34l30.76,0l-4.67,-18.5l-30.76,0l4.67,18.5z" id="svg_214"/>
     <path class="st17" d="m373.1,283.37l32.16,0l0,1.34c0,0.57 -0.46,1.04 -1.04,1.04l-44.08,0c-0.57,0 -1.04,-0.46 -1.04,-1.04l0,-1.34l14,0z" id="svg_215"/>
     <path class="st1" d="m373.1,283.37l32.16,0l0,1.34c0,0.57 -0.46,1.04 -1.04,1.04l-44.08,0c-0.57,0 -1.04,-0.46 -1.04,-1.04l0,-1.34l14,0z" id="svg_216"/>
     <path class="st33" d="m388.16,283.37l0,0.46l5.6,0l0,-0.46l11.5,0l0,1.34c0,0.57 -0.46,1.04 -1.04,1.04l-30.09,0c-0.57,0 -1.04,-0.46 -1.04,-1.04l0,-1.34l15.07,0z" id="svg_217"/>
     <g id="svg_218">
      <path class="st34" d="m360.68,280.93l27.6,0l-4,-15.84l-27.6,0l4,15.84z" id="svg_219"/>
      <path class="st8" d="m356.91,266.02l27.6,0l-0.23,-0.93l-27.6,0l0.23,0.93z" id="svg_220"/>
     </g>
    </g>
   </g>
   <g clip-path="url(#SVGID_00000044867512911646209910000016971931293352912517_)" id="svg_221">
    <g id="_x3C_Group_x3E__54_">
     <path class="st17" d="m429.39,399.68l7.89,-0.49c0.27,-0.03 0.52,0.17 0.55,0.44l0,0.01l0.77,6.22c0.04,0.68 -0.47,1.27 -1.15,1.32c-2.75,0.13 -4.08,0.05 -7.55,0.24c-2.13,0.13 -6.33,0.58 -9.27,0.3c-2.94,-0.28 -2.58,-3.18 -1.31,-3.32c3.01,-0.34 7,-2.55 8.88,-4.23c0.34,-0.3 0.76,-0.47 1.19,-0.49zm-40.18,0l7.89,-0.49c0.27,-0.03 0.52,0.17 0.55,0.44l0,0.01l0.77,6.22c0.04,0.68 -0.47,1.27 -1.15,1.32c-2.75,0.13 -4.08,0.05 -7.55,0.24c-2.13,0.13 -6.33,0.58 -9.27,0.3c-2.94,-0.28 -2.58,-3.18 -1.31,-3.32c3.01,-0.34 7,-2.55 8.88,-4.23c0.34,-0.3 0.75,-0.47 1.19,-0.49z" id="svg_222"/>
     <path class="st26" d="m418.83,280.75l-6.48,0.97s-2.2,-0.73 -4.52,-0.97c-2.32,-0.24 -5.01,0 -5.01,0s-2.93,1.1 -2.93,3.91c0,0 6.84,1.83 9.47,0.73l9.47,-0.73l0,-3.91z" id="svg_223"/>
     <path class="st0" d="m434.2,256.05c-4.03,4.17 -6.78,20.3 -7.51,21.4c-0.73,1.1 -14.66,3.12 -14.66,3.12s-1.47,3.05 0,5.56c0,0 17.26,-0.79 19.36,-1.89c2.09,-1.1 7.23,-13.14 7.23,-13.14s0.49,-3.17 -0.68,-8.3c-1.17,-5.15 -3.74,-6.75 -3.74,-6.75z" id="svg_224"/>
     <path class="st36" d="m434.2,256.05c-4.03,4.17 -6.78,20.3 -7.51,21.4c-0.73,1.1 -14.66,3.12 -14.66,3.12s-1.47,3.05 0,5.56c0,0 17.26,-0.79 19.36,-1.89c2.09,-1.1 7.23,-13.14 7.23,-13.14s0.49,-3.17 -0.68,-8.3c-1.17,-5.15 -3.74,-6.75 -3.74,-6.75z" id="svg_225"/>
     <path class="st28" d="m403.58,233.84s-0.86,2.37 -1.97,3.84c0,0 0.88,1.05 2.36,0.65l-0.39,-4.49z" id="svg_226"/>
     <path d="m402.48,232.7c0.08,0.7 0.52,1.22 0.99,1.16c0.46,-0.05 0.77,-0.66 0.69,-1.36c-0.08,-0.7 -0.52,-1.22 -0.98,-1.16c-0.47,0.05 -0.78,0.66 -0.7,1.36z" id="svg_227"/>
     <path d="m402.66,229.92s0.51,-0.14 1.13,0.4" fill="none" id="svg_228" stroke="#000" stroke-linecap="round" stroke-linejoin="round" stroke-miterlimit="10" stroke-width="0.72"/>
     <path class="st26" d="m405.41,241.68c0.17,0.31 0.34,0.6 0.53,0.88a9.66,9.66 0 0 0 4.46,3.6c0.46,0.19 0.93,0.33 1.41,0.45c2.53,0.59 5.25,0.13 7.39,-1.52a8.96,8.96 0 0 0 2.3,-2.63c2.52,-4.27 1.43,-8.18 0.13,-14.95a9.41,9.41 0 0 0 -1.74,-4.02c-3.11,-4.17 -9.02,-5.02 -13.18,-1.91c-5.88,4.31 -4.27,14.46 -1.3,20.1z" id="svg_229"/>
     <path class="st19" d="m410.4,246.16c0.46,0.19 0.93,0.33 1.41,0.45c2.53,0.59 5.25,0.13 7.39,-1.52c-0.8,-1.17 -1.76,-1.96 -1.76,-1.96s-4.14,0.39 -7.04,3.03z" id="svg_230"/>
     <path class="st26" d="m429.8,250.85c-2.53,3.82 -14.65,5.32 -14.65,5.32s-5.37,-0.11 -4.71,-1.94c2.84,-1.24 3.92,-2.98 4.07,-4.9c0.08,-1.12 -0.16,-2.29 -0.55,-3.46c-0.2,-0.62 -0.46,-1.23 -0.73,-1.82l8.09,-9.88c-2.12,10.91 4.37,13.97 8.48,16.68z" id="svg_231"/>
     <path d="m403.54,221.18c2.29,-3.6 4.33,-2.97 4.33,-2.97c1.46,-3.02 10.05,-3.14 14.41,-0.17c4.36,2.97 5.88,8.53 5.59,12.95c-0.42,6.43 -4.45,12.97 -4.45,12.97c-5.07,1.35 -9.33,0.24 -9.65,-2.45c-0.33,-2.69 -3.04,-4.68 -3.04,-4.68c-2.5,0.84 -4.76,-1.94 -4.76,-1.94s-2.83,-2.5 -2.07,-5.96c0.75,-3.45 -2.29,-4.72 -0.36,-7.75z" id="svg_232"/>
     <path class="st26" d="m411.63,235.07c-0.03,1.55 -0.56,2.82 -1.47,3.52c-1.21,0.92 -2.59,-0.77 -2.9,-2.82c-0.26,-1.82 0.02,-4.56 1.56,-4.6c1.54,-0.04 2.83,1.98 2.81,3.9z" id="svg_233"/>
     <path d="m407.19,235.17s0.69,5.83 2.26,8.15c1.57,2.32 1.38,3.11 3.53,3.48c0,0 -1.21,1.61 -2.3,1.38c-1.09,-0.23 -0.84,-1.15 -1.81,-1.14c-0.96,0.02 -2.63,-0.65 -2.45,-1.65c0.18,-1 0.36,-1.27 -0.91,-2.13c-1.27,-0.86 -1.72,-2.8 -1.03,-3.61s2,-0.56 2,-0.56l-0.1,-4.34l0.81,0.42z" id="svg_234"/>
     <path class="st0" d="m412.61,254.23s1.96,-8.79 13.75,-8.7l2.99,4.35l-16.74,4.35z" id="svg_235"/>
     <path d="m412.61,254.23s1.96,-8.79 13.75,-8.7l2.99,4.35l-16.74,4.35z" fill="#fff" id="svg_236" opacity="0.8"/>
     <path class="st13" d="m414.59,362.98c4.47,16.98 11.51,38.88 11.51,38.88l12.36,-0.94s-6.71,-29.55 -8.55,-47.69c-1.14,-11.2 -1.04,-20.46 2.24,-21.18c2.06,-0.45 6.89,-0.44 13.08,-0.29l0,-23.06c-17.36,3.56 -34.63,10.29 -35.94,15.68c-1.84,7.59 1.37,23.66 5.3,38.6z" id="svg_237"/>
     <path class="st19" d="m414.59,362.98c4.62,-2.92 10.02,-6.36 15.32,-9.76c-1.14,-11.2 -1.04,-20.46 2.24,-21.18c2.06,-0.45 6.89,-0.44 13.08,-0.29l0,-23.05c-17.36,3.56 -34.63,10.29 -35.94,15.68c-1.84,7.59 1.37,23.66 5.3,38.6z" id="svg_238"/>
     <g id="svg_239">
      <path class="st0" d="m421.65,301.84l-2.94,-8.88s-2.11,-16.45 -12.84,-37.17c0,0 12.91,-9.17 27.22,-7.8c11.01,1.05 21.37,29.28 24.61,51.62l-36.05,2.23z" id="svg_240"/>
      <path class="st36" d="m457.71,299.61l-36.05,2.23l-2.95,-8.88s-0.36,-2.81 -1.54,-7.58c-0.82,-3.27 -2.02,-7.48 -3.77,-12.33c-1.84,-5.13 -4.29,-11 -7.53,-17.26c0,0 12.91,-9.16 27.22,-7.8c11.02,1.05 21.38,29.28 24.62,51.62z" id="svg_241"/>
     </g>
     <path class="st13" d="m421.35,306.43l-1.09,-8.75l35.37,-5.82s11.57,22.92 5.91,34.16c-5.19,10.31 -60.48,4.17 -68.99,6.03c-8.6,1.88 5.79,68.72 5.79,68.72l-12.36,0.94s-20.22,-61.12 -16.29,-77.33c1.71,-7.07 30.86,-16.43 51.66,-17.95z" id="svg_242"/>
     <g id="svg_243">
      <path d="m456.93,295.84l-16.39,2.15l-0.53,-2.42l16.42,-2.38l0.5,2.65zm-18.28,-0.25l0.2,2.4l-15.15,2.08l0,-2.37l14.95,-2.11zm-15.89,2.24l0,2.24l-2.2,0.3l0,-2.17l2.2,-0.37z" id="svg_244"/>
     </g>
     <path class="st19" d="m417.17,286.16c-0.82,-3.12 -2.02,-7.13 -3.77,-11.75c0.63,-1.3 1.49,-2.45 2.59,-3.32c0,0 3.39,11.03 1.18,15.07z" id="svg_245"/>
     <path class="st26" d="m388.52,283.23l-5.46,-0.88s-2.2,-0.73 -4.52,-0.97c-2.32,-0.24 -5.01,0 -5.01,0s-2.93,1.1 -2.93,3.91c0,0 6.84,1.83 9.47,0.73l8.05,1.82l0.4,-4.61z" id="svg_246"/>
     <path class="st0" d="m405.87,256.05c-2.55,2.8 -1.06,25.7 -1.89,27.27c-0.83,1.57 -19.91,-1.6 -19.91,-1.6l-1.26,5.67s22.43,6.59 26.54,6.67c4.12,0.07 6.62,-24.19 6.62,-24.19s-0.57,-3.38 -3.58,-7.68c-3,-4.31 -6.52,-6.14 -6.52,-6.14z" id="svg_247"/>
     <path class="st36" d="m405.87,256.05c-2.55,2.8 -1.06,25.7 -1.89,27.27c-0.83,1.57 -19.91,-1.6 -19.91,-1.6l-1.26,5.67s22.43,6.59 26.54,6.67c4.12,0.07 6.62,-24.19 6.62,-24.19s-0.57,-3.38 -3.58,-7.68c-3,-4.31 -6.52,-6.14 -6.52,-6.14z" id="svg_248"/>
    </g>
    <path class="st17" d="m401.61,335.93l70.07,0l0,-4.46a6.79,6.79 0 0 0 -6.79,-6.79l-56.48,0a6.79,6.79 0 0 0 -6.79,6.79l0,4.46l-0.01,0z" id="svg_249"/>
    <path class="st27" d="m401.61,335.93l70.07,0l0,-4.46a6.79,6.79 0 0 0 -6.79,-6.79l-56.48,0a6.79,6.79 0 0 0 -6.79,6.79l0,4.46l-0.01,0z" id="svg_250"/>
    <path class="st17" d="m448.69,296.82l-38.58,0c-1.98,0 -3.45,2.15 -3.01,4.4l6.9,34.71l1.59,0l-5.88,-30.42c-0.43,-2.25 1.03,-4.38 3.01,-4.38l35.17,0l0.8,-4.31zm-16.54,40.33l0,29.33c0,0.95 0.77,1.71 1.71,1.71l7.19,0c0.95,0 1.71,-0.76 1.71,-1.71l0,-29.33l-10.61,0z" id="svg_251"/>
    <path class="st17" d="m434.87,391.2l0,-33.52l5.16,0l0,33.52c20.08,0.51 32.28,7.53 34.72,9.07c0.28,0.18 0.45,0.49 0.45,0.83l0,2.79c0,0.54 -0.44,0.99 -0.99,0.99a1,1 0 0 1 -0.86,-0.5l-1.19,-2.09s-13.81,-4.92 -32.14,-5.32l0,5.51c0,0.7 -0.57,1.28 -1.28,1.28l-2.61,0c-0.7,0 -1.28,-0.57 -1.28,-1.28l0,-5.51c-18.33,0.4 -32.14,5.32 -32.14,5.32l-1.19,2.09c-0.18,0.31 -0.5,0.5 -0.86,0.5c-0.54,0 -0.99,-0.44 -0.99,-0.99l0,-2.79c0,-0.34 0.17,-0.65 0.45,-0.83c2.48,-1.54 14.68,-8.56 34.75,-9.07z" id="svg_252"/>
    <path class="st19" d="m432.15,337.15l10.6,0l0,12.19l-10.6,0l0,-12.19z" id="svg_253"/>
    <path class="st17" d="m399.7,334.13l0,3.5c0,0.99 0.69,1.79 1.54,1.79l70.82,0c0.85,0 1.54,-0.8 1.54,-1.79l0,-3.5c0,-0.98 -0.68,-1.79 -1.54,-1.79l-70.82,0c-0.85,0 -1.54,0.81 -1.54,1.79z" id="svg_254"/>
    <path class="st17" d="m432.28,335.94l41.31,0s13.13,-21.56 13.13,-57.18l0,-13.08c0,-5.37 -4.42,-9.73 -9.87,-9.73l-17.52,0c-5.34,0 -9.71,4.19 -9.86,9.46c-0.5,18.34 -3.24,58.09 -17.19,70.53z" id="svg_255"/>
    <path class="st9" d="m441.36,335.94l30.36,0c1.17,0 2.25,-0.64 2.79,-1.67c2.99,-5.69 12.2,-25.67 12.2,-55.51l0,-13.08c0,-5.38 -4.41,-9.73 -9.86,-9.73l-15.14,0c-5.34,0 -9.71,4.19 -9.86,9.46c-0.45,16.4 -2.69,49.87 -13.11,65.69c-1.36,2.08 0.1,4.84 2.62,4.84z" id="svg_256"/>
    <path class="st19" d="m399.7,334.13l0,3.5c0,0.99 0.69,1.79 1.54,1.79l31.74,0c1.15,0 2.08,-1.08 2.08,-2.42l0,-2.24c0,-1.34 -0.93,-2.42 -2.08,-2.42l-31.73,0c-0.86,0 -1.55,0.81 -1.55,1.79z" id="svg_257"/>
   </g>
   <g clip-path="url(#SVGID_00000044867512911646209910000016971931293352912517_)" id="svg_258">
    <g id="_x3C_Group_x3E__53_">
     <path class="st39" d="m211.05,259.31l-3.03,0.72l-0.7,-2.44s-0.9,0.6 -2.14,0c-0.34,-0.16 -0.81,-0.45 -1.33,-0.79c-1.35,-0.89 -2.95,-2.11 -2.95,-2.11l2.34,-4.77s1.02,0.41 2.27,0.96c1.76,0.79 3.97,1.84 4.36,2.4c0.66,0.95 0.33,2.72 0.33,2.72l0.85,3.31z" id="svg_259"/>
     <path class="st19" d="m203.85,256.8c-1.35,-0.89 -2.95,-2.11 -2.95,-2.11l2.34,-4.77s1.02,0.41 2.27,0.96c0.11,1.4 -0.01,3.85 -1.66,5.92z" id="svg_260"/>
     <path class="st39" d="m252.9,369.47l-5.02,1.96l-3.61,-6.8l-3.28,-6.19l5.57,-3.33l3.35,7.59l2.99,6.77z" id="svg_261"/>
     <path class="st19" d="m249.91,362.7l-5.64,1.93l-3.28,-6.19l5.57,-3.33l3.35,7.59z" id="svg_262"/>
     <path class="st11" d="m248.87,358.99l-6.83,3.66s-25.79,-45.35 -29.76,-44.97c-3.97,0.38 -41.59,24.36 -53.07,15.5c-11.47,-8.85 -0.31,-35.52 -0.31,-35.52s23.74,-6.78 26.31,-1.57c0.5,1.01 1.17,3.03 1.7,4.77c0.51,1.63 0.89,3.01 0.89,3.01s0.01,0 0.01,-0.01c0.72,-0.29 24.17,-9.91 34.63,-4.75c10.65,5.25 26.43,59.88 26.43,59.88z" id="svg_263"/>
     <path d="m248.87,358.99l-6.83,3.66s-25.79,-45.35 -29.76,-44.97c-3.97,0.38 -41.59,24.36 -53.07,15.5c-11.47,-8.85 -0.31,-35.52 -0.31,-35.52s23.74,-6.78 26.31,-1.57c0.5,1.01 1.17,3.03 1.7,4.77c0.51,1.63 0.89,3.01 0.89,3.01s0.01,0 0.01,-0.01c0.72,-0.29 24.17,-9.91 34.63,-4.75c10.65,5.25 26.43,59.88 26.43,59.88z" fill="#fff" id="svg_264" opacity="0.3"/>
     <path class="st39" d="m211.79,395.97l-5.35,-0.61l-0.02,-7.55l-0.01,-6.93l6.47,-0.3l-0.57,8.15l-0.52,7.24z" id="svg_265"/>
     <path class="st19" d="m212.29,388.89l-5.89,-0.93l0,-7.01l6.47,-0.34l-0.58,8.28z" id="svg_266"/>
     <path class="st15" d="m238.71,360.4l9.99,-5l1.04,4.23l-7.56,3.91l-3.47,-3.14z" id="svg_267"/>
     <path class="st11" d="m176.95,333.26s1.64,-0.19 26.88,-4.86c0,0 0.57,32.27 1.77,56.32l7.77,0.25s11.15,-53.39 9.84,-61.45c-1.31,-8.06 -10.9,-9.15 -10.9,-9.15s-16.67,12.94 -35.36,18.89z" id="svg_268"/>
     <path class="st27" d="m176.95,333.26s1.64,-0.19 26.88,-4.86c0,0 0.57,32.27 1.77,56.32l7.77,0.25s11.15,-53.39 9.84,-61.45c-1.31,-8.06 -10.9,-9.15 -10.9,-9.15s-16.67,12.94 -35.36,18.89z" id="svg_269"/>
     <path d="m176.95,333.26s1.64,-0.19 26.88,-4.86c0,0 0.57,32.27 1.77,56.32l7.77,0.25s11.15,-53.39 9.84,-61.45c-1.31,-8.06 -10.9,-9.15 -10.9,-9.15s-16.67,12.94 -35.36,18.89z" id="svg_270" opacity="0.12"/>
     <path class="st15" d="m204.17,382.57l10.6,-0.25l-1.46,4.37l-8.59,0.08l-0.55,-4.2z" id="svg_271"/>
     <path class="st17" d="m262.87,378.36c-0.84,-0.25 -1.72,-0.35 -2.59,-0.29c0,0 -3.24,-1.35 -7.15,-7.79l-3.34,0.44a2.78,2.78 0 0 0 -2.31,2.19c-0.03,0.16 -0.04,0.32 -0.03,0.48c0.14,0.8 0.34,1.59 0.59,2.37c0.64,2.46 3.03,7.59 3.03,7.59l0.55,-0.22l-1.71,-4.84c-0.57,-1.65 1.43,-0.26 2.49,1.34c1.06,1.59 2.56,3.14 6.13,1.79c4.15,-1.61 5.8,-2.47 4.34,-3.06z" id="svg_272"/>
     <path class="st39" d="m252.28,368.56s5.37,8.15 8,9.51c0,0 -2.95,2.36 -6.89,-1.45c-5.09,-4.93 -5.94,-3.24 -5.94,-3.24s-0.08,-1.92 0.13,-2.89c0.41,-1.87 4.7,-1.93 4.7,-1.93z" id="svg_273"/>
     <path class="st17" d="m219.8,405.46c-0.75,-0.45 -1.58,-0.75 -2.45,-0.9c0,0 -2.83,-2.08 -5.1,-9.27l-3.35,-0.37c-1.16,-0.11 -2.27,0.52 -2.77,1.58c-0.07,0.14 -0.12,0.3 -0.14,0.45c-0.05,0.81 -0.05,1.63 0.01,2.44c0.04,2.54 1.15,8.09 1.15,8.09l0.58,-0.09l-0.52,-5.11c-0.17,-1.74 1.45,0.09 2.1,1.89c0.65,1.8 1.74,3.66 5.53,3.19c4.43,-0.54 6.23,-0.98 4.96,-1.9z" id="svg_274"/>
     <path class="st39" d="m211.84,393.43s3.28,9.19 5.52,11.13c0,0 -3.43,1.59 -6.35,-3.04c-3.78,-6 -5,-4.56 -5,-4.56s0.38,-1.88 0.82,-2.77c0.82,-1.72 5.01,-0.76 5.01,-0.76z" id="svg_275"/>
     <path class="st42" d="m205.7,239.95s-1.85,-0.05 -2.71,1.27" id="svg_276"/>
     <path class="st30" d="m204.89,244.35s1.08,1.6 2.17,2.5c0,0 -0.46,0.94 -1.63,0.91l-0.54,-3.41z" id="svg_277"/>
     <path d="m205.83,242.45c0.07,0.53 -0.16,1 -0.52,1.04c-0.35,0.05 -0.7,-0.35 -0.76,-0.88c-0.07,-0.53 0.16,-1 0.52,-1.04c0.35,-0.05 0.69,0.35 0.76,0.88z" id="svg_278"/>
     <path d="m204.92,241.61l1.1,-0.6s-0.45,1.05 -1.1,0.6z" id="svg_279"/>
     <path class="st39" d="m192.01,255.19c0.07,0.05 0.14,0.11 0.22,0.14c1.02,0.65 2.19,1.27 3.49,1.5c3.65,0.66 6.09,0.04 7.61,-1.67l0.01,0c2.13,-2.56 2.48,-6.92 1.91,-12.13c-0.26,-2.39 -0.7,-4.46 -1.44,-6.05c-0.01,-0.02 -0.01,-0.08 -0.02,-0.09c-0.04,-0.06 -0.06,-0.15 -0.1,-0.22c-1.1,-2.22 -2.81,-3.61 -5.46,-4.1c-0.92,-0.17 -1.95,-0.24 -3.11,-0.2c-10.19,0.4 -11.2,17.38 -3.11,22.82z" id="svg_280"/>
     <path class="st19" d="m192.23,255.34c1.02,0.65 2.18,1.13 3.48,1.36c3.65,0.66 6.08,-0.08 7.61,-1.81c-1.75,0.48 -4.13,0.74 -6.49,-0.21c-1.49,-0.61 -3.1,-0.18 -4.6,0.66z" id="svg_281"/>
     <path d="m203.82,236.92s0.91,7.12 -5.72,10.53c0,0 -2.55,7.57 -6.83,7.88c-5.83,0.43 -11.39,-7.63 -9.78,-16.19c2.1,-11.11 18.68,-12.81 22.33,-2.22z" id="svg_282"/>
     <path class="st39" d="m201.43,245.22c-0.06,-1.12 -1.04,-2.95 -2.77,-2.61c-1.78,0.35 -2.56,4.82 1.9,5.6c0.64,0.11 0.99,-0.66 0.87,-2.99z" id="svg_283"/>
     <path d="m190.99,229.93s6.74,-2.06 10.64,0.5c4.56,2.99 6.39,6.22 1.43,11.62c0,0 -11.64,-3.15 -15.4,-2.18c-3.77,0.97 -6.44,2.22 -6.44,2.22c-1.17,-7.54 5.89,-13.52 9.77,-12.16z" id="svg_284"/>
     <path class="st39" d="m197.4,256.14s-5.01,2.45 -3.55,7.82l-12.75,-5.31s6.97,-0.44 6.61,-5.34c0,0 7.29,-2.79 9.69,2.83z" id="svg_285"/>
     <path d="m192.73,231.31s-3.8,-10.96 -12.44,-9.07c-8.63,1.89 -7.97,11.16 -1.79,14.02c6.18,2.87 14.83,1.78 14.23,-4.95z" id="svg_286"/>
     <path d="m180.89,236.08s-7.62,-0.04 -6.68,6.49c0,0 0.66,-2.12 2.37,-2.99c0,0 -2.31,1.77 -0.01,4.82c0,0 -0.92,-1.99 2.23,-3.38s11.77,-1.26 10.17,-5.52c-1.61,-4.26 -8.08,0.58 -8.08,0.58z" id="svg_287"/>
     <path class="st42" d="m191.39,231.29s-1.84,-13.34 -12.6,-10.65m8.32,30.29s-7.85,-3.97 -6.46,-10.25m-0.55,-4.55s-6.88,-0.11 -7.47,4.58" id="svg_288"/>
     <path class="st0" d="m181.98,258.29l3.11,-2.24s10.24,1.39 10.34,7.91c0.11,6.53 -13.45,-5.67 -13.45,-5.67z" id="svg_289"/>
     <path class="st0" d="m180.1,258.29s7.68,-1.48 18.36,5.67c0,0 3.58,15.64 -11.54,36.91l-28.66,-1.8s7.76,-31.32 21.84,-40.78z" id="svg_290"/>
     <path d="m187.81,303.88l-9.75,4.9s3.23,-5.4 8.87,-7.91c0.5,1.63 0.88,3.01 0.88,3.01z" id="svg_291" opacity="0.3"/>
     <path class="st35" d="m197.83,278.38c-0.48,2.01 -1.14,4.2 -2.02,6.53c-1.79,4.77 -4.52,10.15 -8.65,15.96l-28.66,-1.8s7.76,-31.32 21.84,-40.78c0,0 7.67,-1.47 18.36,5.67c0,0 1.26,5.51 -0.87,14.42z" id="svg_292"/>
     <path class="st19" d="m197.6,278.38c-0.48,2.01 -1.14,4.2 -2.02,6.53c-0.31,-3.41 0.06,-7.08 0.06,-7.08c0.74,0.08 1.39,0.27 1.96,0.55z" id="svg_293"/>
     <path class="st0" d="m198.46,263.96s8.43,12.12 10.61,13.28c2.18,1.16 -2.01,-18.95 -2.01,-18.95l4.07,-0.88s7.21,24.18 2.37,28.34c-4.84,4.15 -17.86,-7.91 -17.86,-7.91s-0.46,-4.75 0,-8.31c0.45,-3.57 2.82,-5.57 2.82,-5.57z" id="svg_294"/>
     <path class="st35" d="m198.46,263.96s8.43,12.12 10.61,13.28c2.18,1.16 -2.01,-18.95 -2.01,-18.95l4.07,-0.88s7.21,24.18 2.37,28.34c-4.84,4.15 -17.86,-7.91 -17.86,-7.91s-0.46,-4.75 0,-8.31c0.45,-3.57 2.82,-5.57 2.82,-5.57z" id="svg_295"/>
    </g>
    <path class="st17" d="m205.6,335.93l-70.07,0l0,-4.46a6.79,6.79 0 0 1 6.79,-6.79l56.48,0a6.79,6.79 0 0 1 6.79,6.79l0,4.46l0.01,0z" id="svg_296"/>
    <path class="st27" d="m205.6,335.93l-70.07,0l0,-4.46a6.79,6.79 0 0 1 6.79,-6.79l56.48,0a6.79,6.79 0 0 1 6.79,6.79l0,4.46l0.01,0z" id="svg_297"/>
    <path class="st17" d="m158.52,296.82l38.58,0c1.98,0 3.45,2.15 3.01,4.4l-6.9,34.71l-1.59,0l5.88,-30.42c0.43,-2.25 -1.03,-4.38 -3.01,-4.38l-35.17,0l-0.8,-4.31zm16.55,40.33l0,29.33c0,0.95 -0.77,1.71 -1.71,1.71l-7.19,0c-0.95,0 -1.71,-0.76 -1.71,-1.71l0,-29.33l10.61,0z" id="svg_298"/>
    <path class="st17" d="m172.34,391.2l0,-33.52l-5.16,0l0,33.52c-20.08,0.51 -32.28,7.53 -34.72,9.07c-0.28,0.18 -0.45,0.49 -0.45,0.83l0,2.79c0,0.54 0.44,0.99 0.99,0.99a1,1 0 0 0 0.86,-0.5l1.19,-2.09s13.81,-4.92 32.14,-5.32l0,5.51c0,0.7 0.57,1.28 1.28,1.28l2.61,0c0.7,0 1.28,-0.57 1.28,-1.28l0,-5.51c18.33,0.4 32.14,5.32 32.14,5.32l1.19,2.09c0.18,0.31 0.5,0.5 0.86,0.5c0.54,0 0.99,-0.44 0.99,-0.99l0,-2.79c0,-0.34 -0.17,-0.65 -0.45,-0.83c-2.47,-1.54 -14.67,-8.56 -34.75,-9.07z" id="svg_299"/>
    <path class="st19" d="m164.47,337.15l10.6,0l0,12.19l-10.6,0l0,-12.19z" id="svg_300"/>
    <path class="st17" d="m207.52,334.13l0,3.5c0,0.99 -0.69,1.79 -1.54,1.79l-70.82,0c-0.85,0 -1.54,-0.8 -1.54,-1.79l0,-3.5c0,-0.98 0.68,-1.79 1.54,-1.79l70.82,0c0.85,0 1.54,0.81 1.54,1.79z" id="svg_301"/>
    <path class="st17" d="m174.94,335.94l-41.31,0s-13.13,-21.56 -13.13,-57.18l0,-13.08c0,-5.37 4.42,-9.73 9.87,-9.73l17.52,0c5.34,0 9.71,4.19 9.86,9.46c0.5,18.34 3.23,58.09 17.19,70.53z" id="svg_302"/>
    <path class="st9" d="m165.85,335.94l-30.36,0c-1.17,0 -2.25,-0.64 -2.79,-1.67c-2.99,-5.69 -12.2,-25.67 -12.2,-55.51l0,-13.08c0,-5.38 4.41,-9.73 9.86,-9.73l15.14,0c5.34,0 9.71,4.19 9.86,9.46c0.45,16.4 2.69,49.87 13.11,65.69c1.37,2.08 -0.1,4.84 -2.62,4.84z" id="svg_303"/>
    <path class="st19" d="m207.52,334.13l0,3.5c0,0.99 -0.69,1.79 -1.54,1.79l-31.74,0c-1.15,0 -2.08,-1.08 -2.08,-2.42l0,-2.24c0,-1.34 0.93,-2.42 2.08,-2.42l31.73,0c0.86,0 1.55,0.81 1.55,1.79z" id="svg_304"/>
   </g>
  </g>
 </g>
</svg>