<svg class="animated" id="freepik_stories-teaching" xmlns="http://www.w3.org/2000/svg" viewBox="0 0 500 500" version="1.1" xmlns:xlink="http://www.w3.org/1999/xlink" xmlns:svgjs="http://svgjs.com/svgjs"><style>svg#freepik_stories-teaching:not(.animated) .animable {opacity: 0;}svg#freepik_stories-teaching.animated #freepik--character-2--inject-159 {animation: 1.5s Infinite  linear heartbeat;animation-delay: 0s;}            @keyframes heartbeat {                0% {                    transform: scale(1);                }                10% {                    transform: scale(1.1);                }                30% {                    transform: scale(1);                }                40% {                    transform: scale(1);                }                50% {                    transform: scale(1.1);                }                60% {                    transform: scale(1);                }                100% {                    transform: scale(1);                }            }        </style><g id="freepik--background-complete--inject-159" class="animable" style="transform-origin: 250px 228.23px;"><rect x="416.78" y="398.49" width="33.12" height="0.25" style="fill: rgb(235, 235, 235); transform-origin: 433.34px 398.615px;" id="elhl9f6m11jxj" class="animable"></rect><rect x="322.53" y="401.21" width="8.69" height="0.25" style="fill: rgb(235, 235, 235); transform-origin: 326.875px 401.335px;" id="el66hjblk3dir" class="animable"></rect><rect x="396.59" y="389.21" width="19.19" height="0.25" style="fill: rgb(235, 235, 235); transform-origin: 406.185px 389.335px;" id="elsm5xjlb9l1" class="animable"></rect><rect x="52.46" y="390.89" width="43.19" height="0.25" style="fill: rgb(235, 235, 235); transform-origin: 74.055px 391.015px;" id="elj60natqc53" class="animable"></rect><rect x="104.56" y="390.89" width="6.33" height="0.25" style="fill: rgb(235, 235, 235); transform-origin: 107.725px 391.015px;" id="el0ldy492vny7" class="animable"></rect><rect x="131.47" y="395.11" width="93.68" height="0.25" style="fill: rgb(235, 235, 235); transform-origin: 178.31px 395.235px;" id="eld4iogh3ou0k" class="animable"></rect><path d="M237,337.8H43.91a5.71,5.71,0,0,1-5.7-5.71V60.66A5.71,5.71,0,0,1,43.91,55H237a5.71,5.71,0,0,1,5.71,5.71V332.09A5.71,5.71,0,0,1,237,337.8ZM43.91,55.2a5.46,5.46,0,0,0-5.45,5.46V332.09a5.46,5.46,0,0,0,5.45,5.46H237a5.47,5.47,0,0,0,5.46-5.46V60.66A5.47,5.47,0,0,0,237,55.2Z" style="fill: rgb(235, 235, 235); transform-origin: 140.46px 196.4px;" id="el3abh0e2shax" class="animable"></path><path d="M453.31,337.8H260.21a5.72,5.72,0,0,1-5.71-5.71V60.66A5.72,5.72,0,0,1,260.21,55h193.1A5.71,5.71,0,0,1,459,60.66V332.09A5.71,5.71,0,0,1,453.31,337.8ZM260.21,55.2a5.47,5.47,0,0,0-5.46,5.46V332.09a5.47,5.47,0,0,0,5.46,5.46h193.1a5.47,5.47,0,0,0,5.46-5.46V60.66a5.47,5.47,0,0,0-5.46-5.46Z" style="fill: rgb(235, 235, 235); transform-origin: 356.75px 196.4px;" id="elv7541p5ge3h" class="animable"></path><rect y="382.4" width="500" height="0.25" style="fill: rgb(235, 235, 235); transform-origin: 250px 382.525px;" id="ellculx8fl8e" class="animable"></rect><rect x="425.91" y="69.51" width="3.41" height="57.92" style="fill: rgb(224, 224, 224); transform-origin: 427.615px 98.47px;" id="elobgn9o6at4k" class="animable"></rect><rect x="373.13" y="69.51" width="54.48" height="57.92" style="fill: rgb(240, 240, 240); transform-origin: 400.37px 98.47px;" id="elyvjp0rmwea7" class="animable"></rect><rect x="378.02" y="74.07" width="45.36" height="48.79" style="fill: rgb(255, 255, 255); transform-origin: 400.7px 98.465px;" id="el5bdpmvb1ccp" class="animable"></rect><path d="M412.42,104.09a13.28,13.28,0,0,0,.16,2.21c.11.57.24,1.15.38,1.72a4.93,4.93,0,0,1,.27,1.35,2.66,2.66,0,0,1-1.05,2.15,3.81,3.81,0,0,1-2.51.87,4.31,4.31,0,0,1-3.45-1.27,5.42,5.42,0,0,1-1.18-3.31,13.53,13.53,0,0,1-4.85,3.5,15.55,15.55,0,0,1-5.93,1.08,9.42,9.42,0,0,1-6.23-2.24,7.22,7.22,0,0,1-2.66-5.79,8.79,8.79,0,0,1,.83-4,6.83,6.83,0,0,1,2.32-2.64A11.86,11.86,0,0,1,392,96.14a26.14,26.14,0,0,1,4.39-.84l4.8-.54a6,6,0,0,0,2.53-.78,2.36,2.36,0,0,0,.86-2.13,2.6,2.6,0,0,0-1.4-2.42,7,7,0,0,0-3.55-.81,7.36,7.36,0,0,0-3.51.7,12.39,12.39,0,0,0-2.59,1.94,8.59,8.59,0,0,1-1.5,1.26,2.82,2.82,0,0,1-1.51.41,3.38,3.38,0,0,1-2.4-.89,2.82,2.82,0,0,1-.95-2.13,4.43,4.43,0,0,1,.84-2.45,8.19,8.19,0,0,1,2.45-2.32,14.19,14.19,0,0,1,4-1.7,19.9,19.9,0,0,1,5.26-.64q5.93,0,9.35,2a6.58,6.58,0,0,1,3.42,6.09Zm-7.87-5.66a3.75,3.75,0,0,1-1.37.75,17.68,17.68,0,0,1-2,.49h0l-2.86.43a9,9,0,0,0-3.83,1.26,3,3,0,0,0-1.23,2.62,2.83,2.83,0,0,0,1.18,2.29,5,5,0,0,0,3.18.94,7.29,7.29,0,0,0,5-1.7,5.18,5.18,0,0,0,1.91-4Z" style="fill: rgb(235, 235, 235); transform-origin: 399.298px 97.6026px;" id="el7o2vqk98t3" class="animable"></path><rect x="420.44" y="230.04" width="26.01" height="27.69" style="fill: rgb(230, 230, 230); transform-origin: 433.445px 243.885px;" id="elwje28ueffmi" class="animable"></rect><rect x="413.78" y="230.04" width="6.66" height="27.69" style="fill: rgb(245, 245, 245); transform-origin: 417.11px 243.885px;" id="el9nzk6homhg5" class="animable"></rect><rect x="433.73" y="225.77" width="19.54" height="31.96" style="fill: rgb(230, 230, 230); transform-origin: 443.5px 241.75px;" id="eluop1uzb8gx9" class="animable"></rect><rect x="428.09" y="225.77" width="5.65" height="31.96" style="fill: rgb(240, 240, 240); transform-origin: 430.915px 241.75px;" id="elwkcgcgdameh" class="animable"></rect><rect x="439.49" y="230.04" width="18.98" height="27.69" style="fill: rgb(240, 240, 240); transform-origin: 448.98px 243.885px;" id="elzro3kqlx8u" class="animable"></rect><rect x="435.72" y="230.04" width="3.76" height="27.69" style="fill: rgb(245, 245, 245); transform-origin: 437.6px 243.885px;" id="eld4x7c5jxvbv" class="animable"></rect><rect x="374.18" y="249.96" width="4.83" height="10.34" style="fill: rgb(224, 224, 224); transform-origin: 376.595px 255.13px;" id="elytwtjlkv7p" class="animable"></rect><path d="M375.78,252.17a25.28,25.28,0,0,1-18-7.46l.71-.7a24.44,24.44,0,0,0,34.57-34.57l.7-.7a25.45,25.45,0,0,1-18,43.43Z" style="fill: rgb(224, 224, 224); transform-origin: 379.489px 230.455px;" id="elmb2nilgt53" class="animable"></path><rect x="356.76" y="257.73" width="102.01" height="124.35" style="fill: rgb(235, 235, 235); transform-origin: 407.765px 319.905px;" id="elxkw0z2sx8te" class="animable"></rect><rect x="364.91" y="271.59" width="84.99" height="110.8" style="fill: rgb(245, 245, 245); transform-origin: 407.405px 326.99px;" id="elz23nk1kfngn" class="animable"></rect><circle cx="376.95" cy="228.07" r="17.17" style="fill: rgb(235, 235, 235); transform-origin: 376.95px 228.07px;" id="el9fgtvif06ps" class="animable"></circle><path d="M364.57,240.51a17.56,17.56,0,0,1,24.83-24.83l-.55.55A16.78,16.78,0,0,0,365.12,240Z" style="fill: rgb(255, 255, 255); transform-origin: 374.518px 225.628px;" id="eln7ln8vjfkwq" class="animable"></path><path d="M364.57,240.51l.55-.54a16.78,16.78,0,1,0,23.73-23.74l.55-.55a17.56,17.56,0,1,1-24.83,24.83Z" style="fill: rgb(255, 255, 255); transform-origin: 379.663px 230.773px;" id="eloxavvp5nypq" class="animable"></path><path d="M383.33,234.44l-.55-.54c4-4,7.37-11.45,6-17.86l.75-.16C391,222.56,387.5,230.27,383.33,234.44Z" style="fill: rgb(255, 255, 255); transform-origin: 386.326px 225.16px;" id="el5u8l5r71qot" class="animable"></path><path d="M365.13,240.25l.17-.76c6.4,1.4,13.83-1.94,17.85-6l.55.54C379.53,238.25,371.81,241.71,365.13,240.25Z" style="fill: rgb(255, 255, 255); transform-origin: 374.415px 237.04px;" id="elfgj5afyma9f" class="animable"></path><path d="M371.19,222.3l-.55-.54c4.17-4.18,11.89-7.64,18.57-6.18l-.17.76C382.64,214.94,375.21,218.28,371.19,222.3Z" style="fill: rgb(255, 255, 255); transform-origin: 379.925px 218.77px;" id="eltwugdav4hs" class="animable"></path><path d="M364.84,240c-1.46-6.68,2-14.39,6.17-18.57l.55.55c-4,4-7.37,11.45-6,17.86Z" style="fill: rgb(255, 255, 255); transform-origin: 368.03px 230.715px;" id="elf8xvkhr62g5" class="animable"></path><g id="eldwiwloeimwu"><rect x="359.82" y="227.71" width="34.34" height="0.77" style="fill: rgb(255, 255, 255); transform-origin: 376.99px 228.095px; transform: rotate(-45deg);" class="animable" id="el637218joh0c"></rect></g><g id="el8kjrnjxni2"><rect x="383.07" y="207.1" width="0.77" height="29.07" style="fill: rgb(255, 255, 255); transform-origin: 383.455px 221.635px; transform: rotate(-45deg);" class="animable" id="elqqqsxxqwh8p"></rect></g><g id="eltq8micxyppc"><rect x="376.39" y="211.14" width="0.77" height="34.32" style="fill: rgb(255, 255, 255); transform-origin: 376.775px 228.3px; transform: rotate(-45deg);" class="animable" id="eldwhl66r4zz8"></rect></g><g id="eliabjddcdb3e"><rect x="369.72" y="220.82" width="0.77" height="28.3" style="fill: rgb(255, 255, 255); transform-origin: 370.105px 234.97px; transform: rotate(-45deg);" class="animable" id="elgzes8t1qxx7"></rect></g><rect x="38.46" y="246.44" width="312.47" height="8.41" style="fill: rgb(224, 224, 224); transform-origin: 194.695px 250.645px;" id="elu689vnifgcm" class="animable"></rect><rect x="338.82" y="69.44" width="2.13" height="176.93" style="fill: rgb(224, 224, 224); transform-origin: 339.885px 157.905px;" id="elwfbn8ypaty8" class="animable"></rect><rect x="57.05" y="77.2" width="1.75" height="159.2" style="fill: rgb(224, 224, 224); transform-origin: 57.925px 156.8px;" id="elux0t4cl0pvr" class="animable"></rect><rect x="48.44" y="69.51" width="290.35" height="176.93" style="fill: rgb(240, 240, 240); transform-origin: 193.615px 157.975px;" id="elmdmaiubombb" class="animable"></rect><rect x="57.05" y="77.2" width="272.28" height="159.2" style="fill: rgb(224, 224, 224); transform-origin: 193.19px 156.8px;" id="els0cznhverc8" class="animable"></rect><path d="M58.66,170.92v75H102Zm9.44,37.82,15.27,26.47H68.1Z" style="fill: rgb(250, 250, 250); transform-origin: 80.33px 208.42px;" id="elqwmynzegade" class="animable"></path><g id="elzolr8wc2qjf"><path d="M227.86,236H195.68v.16a2.36,2.36,0,0,0-1.51,2.21v7.05a2.36,2.36,0,0,0,1.51,2.21v.16h32.79a1.76,1.76,0,0,0,1.76-1.76v-7.66A2.37,2.37,0,0,0,227.86,236Z" style="opacity: 0.1; transform-origin: 212.2px 241.895px;" class="animable" id="ellh581340r8l"></path></g><path d="M228.48,240.87V245a1.76,1.76,0,0,1-1.77,1.76H193.92v-5.9Z" style="fill: rgb(240, 240, 240); transform-origin: 211.2px 243.81px;" id="elo90g3d3m6if" class="animable"></path><path d="M193.92,240.87V235h32.19a2.37,2.37,0,0,1,2.37,2.37v3.52Z" style="fill: rgb(224, 224, 224); transform-origin: 211.2px 237.945px;" id="eljl2wenhoxfr" class="animable"></path><path d="M204.21,240.87v3.53a2.38,2.38,0,0,1-2.37,2.37h-7.06a2.37,2.37,0,0,1-2.37-2.37v-3.53Z" style="fill: rgb(250, 250, 250); transform-origin: 198.31px 243.82px;" id="el7eejfbf6dms" class="animable"></path><path d="M192.41,240.87v-3.52a2.37,2.37,0,0,1,2.37-2.37h7.06a2.38,2.38,0,0,1,2.37,2.37v3.52Z" style="fill: rgb(235, 235, 235); transform-origin: 198.31px 237.925px;" id="eltfsodqapgwb" class="animable"></path><rect x="204.42" y="241.83" width="24.05" height="0.5" style="fill: rgb(230, 230, 230); transform-origin: 216.445px 242.08px;" id="elr1doee3pn5" class="animable"></rect></g><g id="freepik--Shadow--inject-159" class="animable" style="transform-origin: 250px 415.69px;"><ellipse id="freepik--path--inject-159" cx="250" cy="415.69" rx="193.89" ry="11.32" style="fill: rgb(245, 245, 245); transform-origin: 250px 415.69px;" class="animable"></ellipse></g><g id="freepik--Numbers--inject-159" class="animable" style="transform-origin: 230.628px 157.642px;"><path d="M207.73,108.81c0,.75-.13,1.5-.22,2.24s-.21,1.48-.32,2.24-.21,1.5-.33,2.25-.23,1.51-.3,2.26a4.63,4.63,0,0,1,0,.54,4.63,4.63,0,0,0,0,.54,4.73,4.73,0,0,1,0,.52c0,.18,0,.35-.05.52a2.9,2.9,0,0,1-.14.65,4.14,4.14,0,0,1-.26.61,1.5,1.5,0,0,1-.42.56,1.36,1.36,0,0,1-.61.31,1.48,1.48,0,0,1-.93-.13,1.52,1.52,0,0,1-.66-.62,3,3,0,0,1-.18-.6,4.6,4.6,0,0,1-.05-.64,4.85,4.85,0,0,1,0-.66c0-.22,0-.43,0-.65.06-.66.14-1.32.22-2s.17-1.34.27-2,.19-1.37.29-2.06.19-1.37.25-2.06c0-.19,0-.38,0-.58s0-.41,0-.6a2.79,2.79,0,0,0,0-.58,1.67,1.67,0,0,0-.15-.54c-.13-.12-.26-.24-.39-.38a3.51,3.51,0,0,1-.37-.41,1.8,1.8,0,0,1-.24-.48,1.3,1.3,0,0,1,0-.56,2.63,2.63,0,0,1,.19-.77,3,3,0,0,1,.42-.69,2.37,2.37,0,0,1,.6-.54,1.93,1.93,0,0,1,.76-.28,2.24,2.24,0,0,1,.39.14l.37.19a3.77,3.77,0,0,1,.83.66,4.27,4.27,0,0,1,.61.87,4.46,4.46,0,0,1,.38,1,4.52,4.52,0,0,1,.11,1.1,3,3,0,0,0,0,.31Z" style="fill: #000000; transform-origin: 205.455px 113.147px;" id="elr9jtbn1b5uo" class="animable"></path><path d="M219.63,113.23a1.54,1.54,0,0,1-.17.51,2,2,0,0,1-.33.44,1.77,1.77,0,0,1-.45.3,1.42,1.42,0,0,1-.53.13q-.43,0-.87,0c-.29,0-.58,0-.88,0,0,.25-.06.5-.07.76a6.7,6.7,0,0,1-.08.77,1.32,1.32,0,0,1-.25.58,2.4,2.4,0,0,1-.45.45,2.36,2.36,0,0,1-.57.35,1.59,1.59,0,0,1-.64.13,1.12,1.12,0,0,1-.72-.44,1.84,1.84,0,0,1-.34-.78,4.08,4.08,0,0,1-.1-.93c0-.32,0-.62,0-.89h-.75l-.77,0a1.17,1.17,0,0,1-.59-.18,1.36,1.36,0,0,1-.45-.41,2.35,2.35,0,0,1-.3-.54,1.22,1.22,0,0,1-.07-.63,1.48,1.48,0,0,1,.54-.76,2.66,2.66,0,0,1,.85-.4,5.14,5.14,0,0,1,1-.16l.93-.09,0-.24a8.71,8.71,0,0,1,.15-.89,3.85,3.85,0,0,1,.32-.9,2.39,2.39,0,0,1,.57-.69,1.33,1.33,0,0,1,.89-.27,1.18,1.18,0,0,1,.5.11,1.46,1.46,0,0,1,.41.29,1.26,1.26,0,0,1,.28.4,1.39,1.39,0,0,1,.1.5,6.73,6.73,0,0,0-.05.89,5.51,5.51,0,0,1-.07.89h.28a7.44,7.44,0,0,1,.91,0,3.15,3.15,0,0,1,.89.24,1.79,1.79,0,0,1,.67.51A1.12,1.12,0,0,1,219.63,113.23Z" style="fill: #000000; transform-origin: 214.948px 113.049px;" id="elcsc0cqt74f" class="animable"></path><path d="M227.26,108.81c0,.75-.13,1.5-.22,2.24s-.2,1.48-.32,2.24-.21,1.5-.33,2.25-.23,1.51-.3,2.26a4.63,4.63,0,0,1,0,.54,4.63,4.63,0,0,0,0,.54,4.73,4.73,0,0,1,0,.52c0,.18,0,.35-.05.52a2.9,2.9,0,0,1-.14.65,4.14,4.14,0,0,1-.26.61,1.5,1.5,0,0,1-.42.56,1.36,1.36,0,0,1-.61.31,1.48,1.48,0,0,1-.93-.13,1.58,1.58,0,0,1-.66-.62,3,3,0,0,1-.18-.6,4.6,4.6,0,0,1-.05-.64,4.85,4.85,0,0,1,0-.66c0-.22,0-.43,0-.65.06-.66.14-1.32.22-2s.17-1.34.27-2,.19-1.37.29-2.06.19-1.37.25-2.06c0-.19,0-.38,0-.58s0-.41,0-.6a2.79,2.79,0,0,0,0-.58,1.67,1.67,0,0,0-.15-.54c-.13-.12-.26-.24-.39-.38a3.51,3.51,0,0,1-.37-.41,1.8,1.8,0,0,1-.24-.48,1.3,1.3,0,0,1,0-.56,2.63,2.63,0,0,1,.19-.77,3,3,0,0,1,.42-.69,2.37,2.37,0,0,1,.6-.54,1.93,1.93,0,0,1,.76-.28,2.24,2.24,0,0,1,.39.14l.37.19a3.77,3.77,0,0,1,.83.66,4.27,4.27,0,0,1,.61.87,4,4,0,0,1,.38,1,4.52,4.52,0,0,1,.11,1.1,3,3,0,0,0,0,.31Z" style="fill: #000000; transform-origin: 224.985px 113.147px;" id="elsv82xj1c8p" class="animable"></path><path d="M239.9,115.28a1.52,1.52,0,0,1-.3.56,2.13,2.13,0,0,1-.46.44,2.29,2.29,0,0,1-.56.29,1.71,1.71,0,0,1-.62.12c-1,.07-1.93.1-2.89.09s-1.9,0-2.85-.11a1.54,1.54,0,0,1-.61-.17,1.75,1.75,0,0,1-.49-.35,2,2,0,0,1-.35-.51,1.65,1.65,0,0,1-.14-.62.69.69,0,0,1,.11-.45,1,1,0,0,1,.31-.32,1.81,1.81,0,0,1,.41-.23l.43-.15a9.23,9.23,0,0,1,1-.21,7,7,0,0,1,1-.07h.54l.54.05c.37,0,.75,0,1.14,0h.62l.3,0a1.1,1.1,0,0,0,.31,0l.57,0a4.28,4.28,0,0,1,.61.09,3.43,3.43,0,0,1,.57.17,1.67,1.67,0,0,1,.47.28,1,1,0,0,1,.28.45A1.41,1.41,0,0,1,239.9,115.28Zm.48-4a1,1,0,0,1-.09.58,1.25,1.25,0,0,1-.37.42,1.52,1.52,0,0,1-.53.25,1.6,1.6,0,0,1-.57,0h-6.54a1.13,1.13,0,0,1-.57-.12,1.3,1.3,0,0,1-.43-.34,1.21,1.21,0,0,1-.23-.5,1.14,1.14,0,0,1,0-.58,1,1,0,0,1,.2-.46,1.67,1.67,0,0,1,.36-.34,2.65,2.65,0,0,1,.44-.25l.45-.2a4.85,4.85,0,0,1,1-.25l1-.12h.51a4.12,4.12,0,0,1,.51,0c.34,0,.68,0,1,0h.32a1.83,1.83,0,0,0,.33,0l.33,0,.34,0a4.47,4.47,0,0,1,.87.1,2.83,2.83,0,0,1,.83.3,1.85,1.85,0,0,1,.62.56A1.47,1.47,0,0,1,240.38,111.26Z" style="fill: #000000; transform-origin: 235.508px 113.072px;" id="elqhr3rfg0zpn" class="animable"></path><path d="M255.55,119.45a3.67,3.67,0,0,1-.88.7,6.23,6.23,0,0,1-1,.48c-.35.13-.71.25-1.07.36s-.72.21-1.06.32c-.8.21-1.6.39-2.42.52a11.3,11.3,0,0,1-2.46.15,1.31,1.31,0,0,1-.74-.21,1.69,1.69,0,0,1-.51-.52,2,2,0,0,1-.28-.72,3,3,0,0,1,0-.78,5.3,5.3,0,0,1,.18-1,7.61,7.61,0,0,1,.33-1,8.72,8.72,0,0,1,.47-.91c.17-.3.35-.59.53-.87l1.39-2,1.4-2c.19-.28.38-.58.56-.89a7.51,7.51,0,0,0,.5-.92,8.93,8.93,0,0,0,.39-1,5.46,5.46,0,0,0,.22-1,.92.92,0,0,0,0-.33.86.86,0,0,0-.11-.28.55.55,0,0,0-.21-.19.46.46,0,0,0-.32-.07,4.17,4.17,0,0,0-.78.1,5.15,5.15,0,0,0-.76.24l-.69.29a1.79,1.79,0,0,0-.59.48l-.1.23-.09.21-.07.21a1.26,1.26,0,0,1-.25.47,2,2,0,0,1-.38.39,2.16,2.16,0,0,1-.48.24,1.58,1.58,0,0,1-.52.09,1.16,1.16,0,0,1-.68-.15.87.87,0,0,1-.42-.55,1.54,1.54,0,0,1-.19-.65,3.29,3.29,0,0,1,0-.7,2.54,2.54,0,0,1,.4-1,4.07,4.07,0,0,1,.74-.87,5.83,5.83,0,0,1,.94-.69c.34-.19.68-.37,1-.52a9.57,9.57,0,0,1,2.19-.68,10.7,10.7,0,0,1,2.26-.16,1.88,1.88,0,0,1,1.28.5,3.23,3.23,0,0,1,.78,1.12,5.31,5.31,0,0,1,.43,1.35,7,7,0,0,1,.09,1.45,5.18,5.18,0,0,1-.39,1.74,11.18,11.18,0,0,1-.8,1.63l-1.18,1.66c-.39.55-.78,1.09-1.19,1.64s-.73,1.06-1.06,1.6a7.11,7.11,0,0,0-.77,1.74c.83-.14,1.65-.3,2.47-.48s1.64-.33,2.46-.44a1,1,0,0,1,.61.15,1.8,1.8,0,0,1,.44.43,2,2,0,0,1,.3.49A1.25,1.25,0,0,1,255.55,119.45Z" style="fill: #000000; transform-origin: 249.999px 113.128px;" id="elpklymvxsds" class="animable"></path><path d="M208.83,208.52a3.62,3.62,0,0,1-.87.7,6.65,6.65,0,0,1-1,.48c-.36.13-.71.25-1.08.36l-1.05.32c-.8.21-1.61.39-2.43.52a11.26,11.26,0,0,1-2.46.15,1.28,1.28,0,0,1-.73-.21,1.61,1.61,0,0,1-.52-.52,2.23,2.23,0,0,1-.27-.72,2.59,2.59,0,0,1,0-.78,4.57,4.57,0,0,1,.17-1,6.32,6.32,0,0,1,.34-1,8.63,8.63,0,0,1,.46-.91c.18-.3.35-.59.53-.87l1.39-2,1.41-2,.56-.89a10.36,10.36,0,0,0,.5-.93,8,8,0,0,0,.38-1,4.73,4.73,0,0,0,.22-1,.91.91,0,0,0,0-.33.86.86,0,0,0-.11-.28.55.55,0,0,0-.21-.19.51.51,0,0,0-.33-.07,4.17,4.17,0,0,0-.78.1,4.69,4.69,0,0,0-.75.24c-.23.09-.46.18-.69.29a1.72,1.72,0,0,0-.6.48l-.1.23-.09.21-.06.21a1.42,1.42,0,0,1-.25.47,1.75,1.75,0,0,1-.39.38,1.57,1.57,0,0,1-.48.25,1.52,1.52,0,0,1-.51.09,1.17,1.17,0,0,1-.69-.15.87.87,0,0,1-.42-.55,1.4,1.4,0,0,1-.18-.65,4.1,4.1,0,0,1,0-.7,2.54,2.54,0,0,1,.4-1,4.73,4.73,0,0,1,.74-.87,5.91,5.91,0,0,1,.95-.69,10.72,10.72,0,0,1,1-.52,9.81,9.81,0,0,1,2.2-.68,10.66,10.66,0,0,1,2.25-.16,1.86,1.86,0,0,1,1.28.5,3,3,0,0,1,.78,1.12,5,5,0,0,1,.43,1.35,7,7,0,0,1,.09,1.45,5.42,5.42,0,0,1-.38,1.74,12.36,12.36,0,0,1-.81,1.63l-1.18,1.66c-.38.55-.78,1.09-1.19,1.64s-.72,1.06-1.06,1.6a7.51,7.51,0,0,0-.77,1.74c.83-.14,1.66-.3,2.48-.48s1.63-.33,2.46-.44a1,1,0,0,1,.6.15,1.63,1.63,0,0,1,.44.43,1.77,1.77,0,0,1,.31.49A1.37,1.37,0,0,1,208.83,208.52Z" style="fill: #000000; transform-origin: 203.282px 202.193px;" id="el340ajt0y6a9" class="animable"></path><path d="M221.33,202.3a1.34,1.34,0,0,1-.17.51,2,2,0,0,1-.33.44,1.77,1.77,0,0,1-.45.3,1.37,1.37,0,0,1-.52.13c-.3,0-.59,0-.88,0s-.58,0-.88,0c0,.25,0,.5-.07.76a6.7,6.7,0,0,1-.08.77,1.21,1.21,0,0,1-.25.58,2.4,2.4,0,0,1-.45.45,2.5,2.5,0,0,1-.56.35,1.64,1.64,0,0,1-.65.13,1.12,1.12,0,0,1-.72-.44,2,2,0,0,1-.34-.78,4.73,4.73,0,0,1-.1-.93c0-.32,0-.62,0-.89h-.74l-.77,0a1.24,1.24,0,0,1-.6-.18,1.36,1.36,0,0,1-.45-.41,2.77,2.77,0,0,1-.29-.54,1,1,0,0,1-.07-.63,1.48,1.48,0,0,1,.54-.76,2.71,2.71,0,0,1,.84-.4,5.28,5.28,0,0,1,1-.16l.93-.09,0-.24a8.71,8.71,0,0,1,.15-.89,3.46,3.46,0,0,1,.33-.9,2.11,2.11,0,0,1,.57-.69,1.3,1.3,0,0,1,.89-.27,1.14,1.14,0,0,1,.49.11,1.33,1.33,0,0,1,.41.29,1.26,1.26,0,0,1,.28.4,1.21,1.21,0,0,1,.1.5c0,.3-.05.6-.05.89a6.88,6.88,0,0,1-.06.89h.28a7.18,7.18,0,0,1,.9.05,3.15,3.15,0,0,1,.89.24,1.71,1.71,0,0,1,.67.51A1.12,1.12,0,0,1,221.33,202.3Z" style="fill: #000000; transform-origin: 216.645px 202.118px;" id="elb9htppqhf7j" class="animable"></path><path d="M235.61,208.52a3.62,3.62,0,0,1-.87.7,6.33,6.33,0,0,1-1,.48c-.35.13-.71.25-1.07.36l-1.06.32a24.18,24.18,0,0,1-2.42.52,11.3,11.3,0,0,1-2.46.15,1.33,1.33,0,0,1-.74-.21,1.69,1.69,0,0,1-.51-.52,2.23,2.23,0,0,1-.27-.72,2.3,2.3,0,0,1,0-.78,4.57,4.57,0,0,1,.17-1,6.32,6.32,0,0,1,.34-1,8.63,8.63,0,0,1,.46-.91c.17-.3.35-.59.53-.87l1.39-2,1.41-2c.18-.28.37-.58.55-.89a8.4,8.4,0,0,0,.51-.93,8,8,0,0,0,.38-1,5.46,5.46,0,0,0,.22-1,.74.74,0,0,0,0-.33.85.85,0,0,0-.1-.28.55.55,0,0,0-.21-.19.51.51,0,0,0-.33-.07,4.17,4.17,0,0,0-.78.1,5.15,5.15,0,0,0-.76.24c-.23.09-.45.18-.68.29a1.72,1.72,0,0,0-.6.48l-.1.23-.09.21-.06.21a1.63,1.63,0,0,1-.25.47,2,2,0,0,1-.39.38,1.69,1.69,0,0,1-.48.25,1.52,1.52,0,0,1-.51.09,1.17,1.17,0,0,1-.69-.15.87.87,0,0,1-.42-.55,1.4,1.4,0,0,1-.18-.65,2.74,2.74,0,0,1,0-.7,2.54,2.54,0,0,1,.4-1,4.38,4.38,0,0,1,.74-.87,5.83,5.83,0,0,1,.94-.69c.34-.19.68-.37,1-.52a9.57,9.57,0,0,1,2.19-.68,10.75,10.75,0,0,1,2.26-.16,1.86,1.86,0,0,1,1.28.5,3.23,3.23,0,0,1,.78,1.12,5,5,0,0,1,.43,1.35,7,7,0,0,1,.09,1.45,5.42,5.42,0,0,1-.38,1.74,12.36,12.36,0,0,1-.81,1.63l-1.18,1.66c-.38.55-.78,1.09-1.19,1.64s-.72,1.06-1.06,1.6a7.51,7.51,0,0,0-.77,1.74c.83-.14,1.66-.3,2.47-.48s1.64-.33,2.47-.44a1,1,0,0,1,.6.15,1.63,1.63,0,0,1,.44.43,1.54,1.54,0,0,1,.3.49A1.25,1.25,0,0,1,235.61,208.52Z" style="fill: #000000; transform-origin: 230.069px 202.193px;" id="elvjd2q0n2wwg" class="animable"></path><path d="M248.85,204.35a1.66,1.66,0,0,1-.29.56,2.18,2.18,0,0,1-.47.44,2.29,2.29,0,0,1-.56.29,1.94,1.94,0,0,1-.61.12c-1,.07-1.94.1-2.9.09s-1.9,0-2.85-.11a1.54,1.54,0,0,1-.61-.17,1.69,1.69,0,0,1-.83-.86,1.66,1.66,0,0,1-.15-.62.76.76,0,0,1,.11-.45,1,1,0,0,1,.31-.32,2.06,2.06,0,0,1,.41-.23l.43-.15a9.23,9.23,0,0,1,1-.21,7.09,7.09,0,0,1,1-.07h.55l.54.05c.36,0,.74,0,1.13,0h.62l.3,0a1.1,1.1,0,0,0,.31,0l.57,0a4.28,4.28,0,0,1,.61.09,3.43,3.43,0,0,1,.57.17,1.47,1.47,0,0,1,.47.28,1,1,0,0,1,.28.45A1.41,1.41,0,0,1,248.85,204.35Zm.48-4a.92.92,0,0,1-.09.58,1.25,1.25,0,0,1-.37.42,1.44,1.44,0,0,1-.53.25,1.59,1.59,0,0,1-.57,0h-6.54a1.07,1.07,0,0,1-.56-.12,1.24,1.24,0,0,1-.44-.34,1.21,1.21,0,0,1-.23-.5,1.42,1.42,0,0,1,0-.58,1,1,0,0,1,.2-.46,1.67,1.67,0,0,1,.36-.34A2.65,2.65,0,0,1,241,199l.45-.2a4.85,4.85,0,0,1,1-.25l1-.12h.51a4.12,4.12,0,0,1,.51,0c.34,0,.69,0,1,0h.33a1.67,1.67,0,0,0,.32,0l.33,0,.34,0a4.47,4.47,0,0,1,.87.1,2.73,2.73,0,0,1,.83.3,1.85,1.85,0,0,1,.62.56A1.47,1.47,0,0,1,249.33,200.33Z" style="fill: #000000; transform-origin: 244.461px 202.137px;" id="elqsyqj0h3ag" class="animable"></path><path d="M263.52,203.27a2.72,2.72,0,0,1-.37.9,1.57,1.57,0,0,1-.73.64,2.21,2.21,0,0,0-.08.37l-.06.37c0,.27,0,.54,0,.82l-.06.82c0,.27,0,.53,0,.79s-.05.53-.08.8a4.18,4.18,0,0,1-.16.73,2.47,2.47,0,0,1-.34.69,2.05,2.05,0,0,1-.52.54,1.65,1.65,0,0,1-1.69.12,1.14,1.14,0,0,1-.61-.73,2.47,2.47,0,0,1-.16-1c0-.38,0-.75.06-1.1s.09-.82.15-1.2a5.36,5.36,0,0,0,.1-.6l.09-.59a1.13,1.13,0,0,1,0-.32,1,1,0,0,0,0-.31,3.42,3.42,0,0,0-.45,0h-.44c-.55,0-1.1,0-1.64-.07a7.61,7.61,0,0,1-1.58-.3l-.72-.21a5.66,5.66,0,0,1-.72-.28,3.48,3.48,0,0,1-.64-.38,2.55,2.55,0,0,1-.5-.54,1.34,1.34,0,0,1-.16-.56,4.42,4.42,0,0,1,0-.63,7.71,7.71,0,0,1,.32-1.5c.16-.5.34-1,.54-1.47s.46-1,.71-1.47.54-.94.84-1.4q.22-.36.48-.69c.17-.23.35-.44.54-.65s.34-.38.52-.57a1.84,1.84,0,0,1,.65-.41,1.31,1.31,0,0,1,.68.15,2.85,2.85,0,0,1,.55.39,3.5,3.5,0,0,1,.42.57,1.26,1.26,0,0,1,.16.69,5,5,0,0,1-.49,1.25c-.23.39-.45.79-.67,1.19s-.51.91-.74,1.37a13.52,13.52,0,0,0-.62,1.4c.5.09,1,.17,1.51.22l1.53.19a10.07,10.07,0,0,0,.16-1.06l.09-1.07c0-.34.06-.69.08-1s0-.71.07-1.05.08-.77.14-1.15a8.1,8.1,0,0,1,.27-1.16,1.7,1.7,0,0,1,.22-.5,1.56,1.56,0,0,1,.37-.4,1.47,1.47,0,0,1,.47-.27,1.33,1.33,0,0,1,.53-.05,1.49,1.49,0,0,1,.67.23,1.8,1.8,0,0,1,.5.45,2,2,0,0,1,.31.62,2.35,2.35,0,0,1,.08.7c0,.45,0,.9-.07,1.35s-.07.9-.12,1.35-.08.91-.13,1.36-.09.91-.13,1.37a2.42,2.42,0,0,0,0,.38,1.63,1.63,0,0,1,0,.38,1.83,1.83,0,0,1,.73.65A1.5,1.5,0,0,1,263.52,203.27Z" style="fill: #000000; transform-origin: 257.865px 202.31px;" id="ellwu1eymupb" class="animable"></path></g><g id="freepik--character-2--inject-159" class="animable" style="transform-origin: 323.793px 302.678px;"><g id="freepik--character-2--inject-2--inject-159" class="animable" style="transform-origin: 326.433px 303.983px;"><path d="M311.12,403.31a3.46,3.46,0,0,1-2.44-.53.71.71,0,0,1,0-.84,1,1,0,0,1,.59-.48c1.36-.43,4.29,1.09,4.42,1.16a.19.19,0,0,1,.1.2.19.19,0,0,1-.15.16A13.18,13.18,0,0,1,311.12,403.31Zm-1.37-1.54a1.15,1.15,0,0,0-.37.06.52.52,0,0,0-.37.29c-.14.25-.08.36,0,.42.41.52,2.48.45,4,.21A9,9,0,0,0,309.75,401.77Z" style="fill: #000000; transform-origin: 311.168px 402.368px;" id="elz0bz1c5mofn" class="animable"></path><path d="M313.59,403h-.08c-1-.4-3.05-2.1-2.91-3,0-.23.17-.51.7-.58a1.45,1.45,0,0,1,1.1.29c1.08.82,1.39,3,1.4,3.13a.18.18,0,0,1-.08.18A.2.2,0,0,1,313.59,403Zm-2.14-3.25h-.11c-.35,0-.37.18-.38.23,0,.56,1.32,1.9,2.36,2.47a4.58,4.58,0,0,0-1.19-2.48,1,1,0,0,0-.68-.22Z" style="fill: #000000; transform-origin: 312.198px 401.214px;" id="elh6dwby9y5t" class="animable"></path><polygon points="323.29 406.88 315.09 407.21 308.51 371.05 307.92 367.78 307.52 365.59 319.86 365.59 319.92 366.36 320.28 370.58 323.29 406.88" style="fill: rgb(255, 181, 115); transform-origin: 315.405px 386.4px;" id="elefnw6oo0xbt" class="animable"></polygon><path d="M314.41,401.8l9-.35a.7.7,0,0,1,.72.53l1.91,7.23a1.2,1.2,0,0,1-.84,1.47.73.73,0,0,1-.25,0c-3.24.08-6.12,0-10.14.18-4.75.18-3.52.71-9.1,1-3.36.18-4.13-3.62-2.71-3.86,6.49-1.08,7.09-3.08,9.52-5.51A2.89,2.89,0,0,1,314.41,401.8Z" style="fill: rgb(38, 50, 56); transform-origin: 314.202px 406.657px;" id="el7mnzx63wkut" class="animable"></path><path d="M304,252.81l-.63,0-.5-.08-.95-.15c-.62-.11-1.21-.24-1.81-.37-1.18-.27-2.33-.6-3.46-1a54.49,54.49,0,0,1-6.57-2.56,57.27,57.27,0,0,1-6.15-3.37c-1-.59-2-1.25-2.91-1.9s-1.82-1.34-2.82-2.1a19.22,19.22,0,0,1-5.29-6.86,37.85,37.85,0,0,1-2.45-6.78c-.56-2.21-1.3-16.28-1.31-18.53l5.63-2.39c1.3,3.81,2.81,14.1,4.49,17.75a37.46,37.46,0,0,0,2.72,4.82,9.48,9.48,0,0,0,2.77,2.87c.75.43,1.64,1,2.46,1.43s1.68.94,2.55,1.35,1.72.85,2.6,1.23,1.76.75,2.63,1.15c1.77.69,3.55,1.33,5.35,1.86.88.28,4.77-1.64,5.65-1.4l1.3.3,1.06.22Z" style="fill: rgb(38, 50, 56); transform-origin: 288.755px 229.765px;" id="elnosoy9krelh" class="animable"></path><path d="M274.79,206.74l-1.51-6.58-8.55,3.32a10.19,10.19,0,0,0,4,5.43,3.13,3.13,0,0,0,3.67-.24Z" style="fill: rgb(255, 181, 115); transform-origin: 269.76px 204.776px;" id="elv6urd0a9o2g" class="animable"></path><polygon points="267.07 196.1 261.81 200.45 264.73 203.48 273.27 200.15 267.07 196.1" style="fill: rgb(255, 181, 115); transform-origin: 267.54px 199.79px;" id="el93dtdydus4c" class="animable"></polygon><path d="M298.42,246c-.84,7.73-1.2,23.7,3,53.27l43.9-1.75c0-6.21-4.26-24.67-.89-52.45a7.58,7.58,0,0,0-6.56-8.47l-.27,0c-2.15-.18-4.54-.32-6.87-.34a161.62,161.62,0,0,0-18.67.74c-2.39.31-4.72.78-6.72,1.23A9,9,0,0,0,298.42,246Z" style="fill: rgb(38, 50, 56); transform-origin: 321.605px 267.752px;" id="el9ccrmsxu1nj" class="animable"></path><path d="M326.44,222.06c-.29,5.75.3,12.4,3.73,15.16a67.83,67.83,0,0,1-16.78,9.45c-6.09-4.78-3-8.3-3-8.3,5.67-2.77,5.49-7,4-11.56L323,220C324.4,218.68,326.54,219.94,326.44,222.06Z" style="fill: rgb(255, 181, 115); transform-origin: 319.888px 233.065px;" id="eliz7vs7uo8um" class="animable"></path><g id="el1uxjzsf1ybk"><path d="M326.44,222.06c.11-2.11-2-3.38-3.47-2.08l-8.59,6.86a12.21,12.21,0,0,1,.7,6.33,12.09,12.09,0,0,0,5.67-.88,12.39,12.39,0,0,0,5.72-4.56A44.7,44.7,0,0,1,326.44,222.06Z" style="opacity: 0.2; isolation: isolate; transform-origin: 320.425px 226.334px;" class="animable" id="el52bn26pande"></path></g><path d="M336.31,215.51c-.44,1-.85,1.93-1.22,2.82-2.55,5.85-4.34,9.57-9.38,11.64-8.7,3.58-18.14-3.79-17.44-12.21.63-7.59,5.91-18.6,15.49-18.58,7.49,0,13,5.39,13.41,11.33A10.24,10.24,0,0,1,336.31,215.51Z" style="fill: rgb(255, 181, 115); transform-origin: 322.718px 215.038px;" id="elbgydsr82ghk" class="animable"></path><path d="M313.57,218.31h0a6.52,6.52,0,0,0,6,.53.22.22,0,1,0-.2-.4h0a6.17,6.17,0,0,1-5.54-.53.24.24,0,0,0-.32.08A.23.23,0,0,0,313.57,218.31Z" style="fill: rgb(38, 50, 56); transform-origin: 316.582px 218.607px;" id="el5wl8n23emtc" class="animable"></path><path d="M321.56,211c-.38.62-1,.92-1.41.67s-.43-.94,0-1.56,1-.92,1.41-.67S321.94,210.42,321.56,211Z" style="fill: rgb(38, 50, 56); transform-origin: 320.846px 210.555px;" id="el1y1f2jg6f4e" class="animable"></path><path d="M314.47,208.17c-.38.62-1,1-1.41.67s-.44-.94-.06-1.56,1-1,1.42-.67S314.84,207.56,314.47,208.17Z" style="fill: rgb(38, 50, 56); transform-origin: 313.737px 207.725px;" id="elom6690xo4t8" class="animable"></path><path d="M324.39,209.77a.44.44,0,0,1-.22-.4,3.31,3.31,0,0,0-1.22-2.8.43.43,0,0,1-.1-.6.42.42,0,0,1,.58-.11h0a4.21,4.21,0,0,1,1.58,3.54.44.44,0,0,1-.47.4l-.16,0Z" style="fill: rgb(38, 50, 56); transform-origin: 323.894px 207.795px;" id="elu7nuracjdeq" class="animable"></path><path d="M313.1,203.78a.45.45,0,0,1-.2-.16A.42.42,0,0,1,313,203h0a4.24,4.24,0,0,1,3.86-.46.44.44,0,0,1,.19.58.43.43,0,0,1-.55.2h0a3.32,3.32,0,0,0-3.07.4A.48.48,0,0,1,313.1,203.78Z" style="fill: rgb(38, 50, 56); transform-origin: 314.95px 203.03px;" id="el0f3ws43vqhxn" class="animable"></path><path d="M315.63,211.4c-1.52,1-1.7.82-3.53,1.46a3.7,3.7,0,0,0,2.38,1.45Z" style="fill: rgb(255, 86, 82); transform-origin: 313.865px 212.855px;" id="elnw13116x7da" class="animable"></path><g id="elfq3ftxvpozl"><path d="M336.31,215.51c-.44,1-.85,1.93-1.22,2.82a3.7,3.7,0,0,0-2.16-.15,5.5,5.5,0,0,0-2.9,2,57.62,57.62,0,0,1,2.57-8.52c.35-.89.59-2.37,1.77-2.25a7.2,7.2,0,0,1,2.8,1.12A10.24,10.24,0,0,1,336.31,215.51Z" style="opacity: 0.3; transform-origin: 333.616px 214.792px;" class="animable" id="el2jvsn7k4wjf"></path></g><path d="M335,222.78a6.65,6.65,0,0,1-4.36,2.22c-2.09.11-2.38-2.08-1.17-4,1.08-1.73,3.49-3.87,5.28-3.09S336.48,221.17,335,222.78Z" style="fill: rgb(255, 181, 115); transform-origin: 332.429px 221.374px;" id="elog72w52bv5p" class="animable"></path><g id="elsf7o2dazg1d"><polygon points="319.92 366.36 320.28 370.58 308.71 372.16 307.92 367.78 307.22 367.86 306.65 361.01 306.6 360.41 320.84 359.84 321.21 361.89 321.95 366.12 319.92 366.36" style="opacity: 0.2; isolation: isolate; transform-origin: 314.275px 366px;" class="animable" id="elyzbkci2e1l"></polygon></g><path d="M301.41,299.28a222.35,222.35,0,0,0-1.2,45.26c1,10.81,3,16.27,3,16.27l18,1.08s.4-5.73.54-15.82c-.43-27.93,8.53-47.95,8.53-47.95Z" style="fill: #000000; transform-origin: 314.928px 330.005px;" id="elvwgnues442" class="animable"></path><g id="el8pkndjago1n"><path d="M324.88,311.51c-7.23,1.87-5.13,14.06-2.66,22.28a130.75,130.75,0,0,1,3.7-22.23Z" style="opacity: 0.3; isolation: isolate; transform-origin: 322.915px 322.65px;" class="animable" id="elo71j3iufi7"></path></g><path d="M376.63,385.36c-.6.87-1.29,1.63-1.88,1.64a.76.76,0,0,1-.69-.49,1,1,0,0,1,0-.77c.48-1.34,3.45-2.77,3.59-2.84a.21.21,0,0,1,.26.1.22.22,0,0,1,0,.16A14,14,0,0,1,376.63,385.36Zm-2,.17a1.06,1.06,0,0,0-.18.33.59.59,0,0,0,0,.47c.12.25.25.28.33.28.66,0,1.85-1.72,2.54-3.1a8.62,8.62,0,0,0-2.72,2Z" style="fill: #000000; transform-origin: 375.954px 384.943px;" id="el95v5aomb509" class="animable"></path><path d="M377.86,383.19l-.07,0c-.94.56-3.51,1.17-4.18.51-.16-.15-.3-.43-.05-.9a1.44,1.44,0,0,1,.92-.7c1.3-.37,3.26.7,3.34.74a.23.23,0,0,1,.1.17A.38.38,0,0,1,377.86,383.19ZM374,383l-.07.1c-.17.31-.06.41,0,.43.41.39,2.32.1,3.4-.4a4.64,4.64,0,0,0-2.71-.54A1,1,0,0,0,374,383Z" style="fill: #000000; transform-origin: 375.672px 383.005px;" id="eljyww1nu80n" class="animable"></path><polygon points="386.81 377.77 382.14 384.53 346.83 360.68 355.38 351.26 386.81 377.77" style="fill: rgb(255, 181, 115); transform-origin: 366.82px 367.895px;" id="el2tljoi71wxu" class="animable"></polygon><path d="M377.41,381.82l5.1-7.38a.71.71,0,0,1,.86-.26L390.3,377a1.19,1.19,0,0,1,.67,1.55.89.89,0,0,1-.14.25c-1.88,2.63-4.69,6.37-7,9.72-2.7,3.92-.72,1.5-3.89,6.09-1.92,2.78-5.25,1.61-4.71.27,2.5-6.09,2.09-7.67,1.6-11.06A2.83,2.83,0,0,1,377.41,381.82Z" style="fill: rgb(38, 50, 56); transform-origin: 383.113px 385.217px;" id="el8x9kxl9i079" class="animable"></path><g id="eltfcfo58qi2o"><polygon points="343.83 358.5 352.63 364.6 359.45 354.7 351.08 348 343.83 358.5" style="opacity: 0.2; isolation: isolate; transform-origin: 351.64px 356.3px;" class="animable" id="elkq1zhxqljrs"></polygon></g><path d="M317,298.66s4.79,24.4,15.15,46.14c7.72,13.88,12.11,15,12.11,15l13.38-10.09s-2.18-3.47-4.28-11.86c-6.21-27.09-8-40.36-8-40.36Z" style="fill: #000000; transform-origin: 337.32px 328.645px;" id="elipj6elrp8jk" class="animable"></path><path d="M339.16,360.1c0,.06,4.73,3.41,4.73,3.41l16.36-13.34-3.45-3.89Z" style="fill: rgb(38, 50, 56); transform-origin: 349.705px 354.895px;" id="elr2c3xii9wl" class="animable"></path><path d="M323.48,358.68v7.26l-1.52.18-2,.24-12,1.42-.7.08-4.07.48s-1.63-7.94-1.55-7.94l1.4-.11,18.39-1.44Z" style="fill: rgb(38, 50, 56); transform-origin: 312.559px 363.51px;" id="el3rkw98hy9k5" class="animable"></path><g id="elrvc5fgbfy8"><rect x="316.39" y="259.25" width="26.6" height="36.03" style="fill: #000000; transform-origin: 329.69px 277.265px; transform: rotate(-8.85deg);" class="animable" id="elb1jes739h1j"></rect></g><g id="ell0vpm0pubq"><rect x="316.39" y="259.25" width="26.6" height="36.03" style="opacity: 0.3; isolation: isolate; transform-origin: 329.69px 277.265px; transform: rotate(-8.85deg);" class="animable" id="el09rd1e0ov1s7"></rect></g><polygon points="337.88 259.47 340.06 257.42 345.61 293.02 343.42 295.08 337.88 259.47" style="fill: #000000; transform-origin: 341.745px 276.25px;" id="eldoou0nxoonc" class="animable"></polygon><g id="elgjdwslbp3"><rect x="314.21" y="261.31" width="26.6" height="36.03" style="fill: #000000; transform-origin: 327.51px 279.325px; transform: rotate(-8.85deg);" class="animable" id="elh2pz74wlg9s"></rect></g><g id="el0rg74z1zo3j"><rect x="314.21" y="261.31" width="26.6" height="36.03" style="fill: rgb(255, 255, 255); opacity: 0.2; transform-origin: 327.51px 279.325px; transform: rotate(-8.85deg);" class="animable" id="elben3h8qe3c"></rect></g><path d="M313.87,262.06a.74.74,0,0,1-.22.73,12.48,12.48,0,0,1-2,.78l26.28-4.1,1.46-1.37Z" style="fill: #000000; transform-origin: 325.52px 260.835px;" id="eliw8a3r3hsmm" class="animable"></path><g id="elakm2b4hkccp"><g style="opacity: 0.8; transform-origin: 325.52px 260.835px;" class="animable" id="eldk6gfwsbn69"><path d="M313.87,262.06a.74.74,0,0,1-.22.73,12.48,12.48,0,0,1-2,.78l26.28-4.1,1.46-1.37Z" style="fill: rgb(255, 255, 255); transform-origin: 325.52px 260.835px;" id="elgl4tlayb3d4" class="animable"></path></g></g><path d="M341.72,238.25a20.7,20.7,0,0,1,9.36,8.16c.74.93,2.73,6.37,4,8.29s2.46,3.85,3.58,5.84,2.22,4,3.26,6l.2.38.35.72a10.58,10.58,0,0,1,.63,1.9,8.78,8.78,0,0,1-.15,4.32,9.37,9.37,0,0,1-1.65,3.18,12.15,12.15,0,0,1-1.91,1.95,17.74,17.74,0,0,1-3.68,2.36,31.91,31.91,0,0,1-3.51,1.5,51,51,0,0,1-6.87,1.89,53.57,53.57,0,0,1-6.9,1l-1.36-6a106.32,106.32,0,0,0,11.22-5.43,24.16,24.16,0,0,0,2.35-1.52,11.79,11.79,0,0,0,1.67-1.49c.37-.42.34-.77.08-.24a2.09,2.09,0,0,0-.1,1,2.29,2.29,0,0,0,.07.36h0l-.06-.09-.21-.32q-3.46-5.34-7.2-10.47c-1.25-1.71-2.51-3.41-3.82-5.09l-1.91-2.5-1.87-2.38Z" style="fill: rgb(38, 50, 56); transform-origin: 350.185px 261.995px;" id="elh1zhjb406iw" class="animable"></path><path d="M342.13,279.71l-6.61-1.35-.58,9.14s5.23.88,8.44-3Z" style="fill: rgb(255, 181, 115); transform-origin: 339.16px 282.973px;" id="elanejacurq79" class="animable"></path><path d="M329.69,282.64,331,286a2.46,2.46,0,0,0,2.46,1.57l1.48-.11.57-9.15-4.13,1.06a2.46,2.46,0,0,0-1.81,3A2,2,0,0,0,329.69,282.64Z" style="fill: rgb(255, 181, 115); transform-origin: 332.502px 282.943px;" id="elvkc8s9haey" class="animable"></path></g><path d="M311.9,235.88a2.63,2.63,0,0,0,0,2.21c.54.86,1.8.82,2.81.67l13.26-2a3.59,3.59,0,0,0,2.65-1.22c.73-1.13-.11-2.73-1.34-3.29a7,7,0,0,0-4-.2,63.49,63.49,0,0,1-8.65,1.08C314.15,233.16,312.79,233.17,311.9,235.88Z" style="fill: rgb(38, 50, 56); transform-origin: 321.274px 235.347px;" id="elsae8ht9qo2" class="animable"></path><path d="M307.54,241.77a6.54,6.54,0,0,0,3,5.85,9.89,9.89,0,0,0,6.61,1.37,25.76,25.76,0,0,0,13-6.54c1.1-1.18,2-2.8,1.58-4.35a3.9,3.9,0,0,0-2.75-2.47,11.16,11.16,0,0,0-3.83-.19C320.56,235.79,308.18,235.14,307.54,241.77Z" style="fill: rgb(38, 50, 56); transform-origin: 319.683px 242.224px;" id="eltdkav6s0zvj" class="animable"></path><path d="M341.2,201.94a11.62,11.62,0,0,0-2.69,1.43l-.05,0a8.18,8.18,0,0,0,0-3.49.25.25,0,1,0-.49.12,8.22,8.22,0,0,1,0,3,29.56,29.56,0,0,0-4.73-2.73c-3.73-1.88-4.34-.24-12.82-6.78a4.44,4.44,0,0,1-3.68.34,8.12,8.12,0,0,0,2.39,3.18c-1.5.14-2.38-1.87-3.62-2.46a6.66,6.66,0,0,1-4.23-.21c1.61,4.8,3.62,4.94,8.05,6.61,2.58,1,5,3.17,7.28,4.7l7.65,5.15c1.09.73,2.32,1.5,3.62,1.3,1.72-.28,2.73-2.17,2.81-3.9a5.64,5.64,0,0,0-1.86-4.46,11.68,11.68,0,0,1,2.47-1.3.24.24,0,0,0,.16-.32A.26.26,0,0,0,341.2,201.94Z" style="fill: rgb(38, 50, 56); transform-origin: 326.378px 202.811px;" id="elyoupgy9zea" class="animable"></path><path d="M280.52,198.69l-21.64,6.5a.82.82,0,0,1-.35,0l-2-.19,1.4-1.25a.87.87,0,0,1,.31-.18l21.52-7.14a.9.9,0,0,1,1.12.53l.19.5A.89.89,0,0,1,280.52,198.69Z" style="fill: rgb(38, 50, 56); transform-origin: 268.842px 200.797px;" id="els63eilrggh" class="animable"></path><polygon points="269.76 201.92 264.73 200.83 263.36 201.92 268.85 205.89 269.76 201.92" style="fill: rgb(255, 181, 115); transform-origin: 266.56px 203.36px;" id="el144uido9vqrd" class="animable"></polygon></g><g id="freepik--character-1--inject-159" class="animable" style="transform-origin: 172.125px 262.432px;"><path d="M117.91,112.06a8.41,8.41,0,0,0-6.21,3.76,14.52,14.52,0,0,0-2.27,7.06,12.75,12.75,0,0,0,.66,5.76,6.75,6.75,0,0,0,4,4c2.48.8,5.28-.35,7.06-2.26a16.3,16.3,0,0,0,3.42-7C125.88,118.72,124,111.72,117.91,112.06Z" style="fill: rgb(38, 50, 56); transform-origin: 117.155px 122.473px;" id="elbqc4gpkltbu" class="animable"></path><path d="M149.4,417.41c-5.61.46-9.67-2.05-10.83-4.7s-3.07-5.32-3.32-2.85a63.38,63.38,0,0,0,.11,7.55l-.87.09s-1-8.24-1.35-11.92a26.09,26.09,0,0,1-.27-3.53,4.8,4.8,0,0,1,2.31-3l6.84,1c4.13,10.53,10.79,13.47,10.79,13.47h0a12.25,12.25,0,0,1,3.74,1.44C158.57,416.28,155.94,416.85,149.4,417.41Z" style="fill: rgb(38, 50, 56); transform-origin: 145.043px 408.275px;" id="elwv0q79uo8oc" class="animable"></path><path d="M135.55,402.4a12.92,12.92,0,0,0,4.16,5.21c1.41.95,2.11,5.3,5.34,6.47a9,9,0,0,0,7.76-.64S146.16,410.5,142,400C142,400,135.05,400.73,135.55,402.4Z" style="fill: rgb(255, 181, 115); transform-origin: 144.167px 407.337px;" id="el5lr4ty4e0wg" class="animable"></path><path d="M112.45,416.77c-5.31-1.8-8-5.73-8-8.61s-.7-6.12-1.91-4a63.9,63.9,0,0,0-2.91,7l-.82-.25s2.37-8,3.49-11.46a26.53,26.53,0,0,1,1.16-3.35,4.89,4.89,0,0,1,3.32-1.87l5.88,3.58c-.39,11.3,4.55,16.65,4.55,16.65h0a12.11,12.11,0,0,1,2.85,2.82C121.26,419.43,118.62,418.9,112.45,416.77Z" style="fill: rgb(38, 50, 56); transform-origin: 109.576px 406.442px;" id="el3udc85r9rlj" class="animable"></path><path d="M105.71,397.52a12.87,12.87,0,0,0,1.76,6.44c.9,1.42-.18,5.7,2.31,8.05a9,9,0,0,0,7.38,2.51s-5-5.35-4.55-16.65C112.61,397.87,105.83,395.81,105.71,397.52Z" style="fill: rgb(255, 181, 115); transform-origin: 111.435px 405.713px;" id="elp8t5y163eq" class="animable"></path><path d="M161.72,171.1l.35.42.46.52c.33.35.65.72,1,1.07.69.72,1.44,1.41,2.19,2.13a60,60,0,0,0,4.78,3.95c1.69,1.25,3.46,2.41,5.25,3.55,1,.53,1.82,1.1,2.76,1.62l2.17,1.2a1.44,1.44,0,0,0,1,.06c.7-.21,4.72-4.19,6-5.66,2.83-3.26,8.6-8.23,10.91-11.88l1.18,4.28A58.43,58.43,0,0,1,193.32,185a28.85,28.85,0,0,1-5.1,5.71,14.49,14.49,0,0,1-3.93,2.35,9.36,9.36,0,0,1-7.11-.05l-.89-.4-1.62-.73c-1.1-.49-2.14-1.06-3.2-1.6a64.4,64.4,0,0,1-6.17-3.73,63.3,63.3,0,0,1-5.74-4.45,36.27,36.27,0,0,1-2.67-2.59c-.44-.44-.87-.92-1.29-1.4l-.63-.76c-.22-.29-.39-.5-.71-.93Z" style="fill: rgb(255, 181, 115); transform-origin: 177.015px 180.908px;" id="elmrifiedmmy" class="animable"></path><path d="M198.6,168.08l9.31-5.77-.62,9.07s-5.18,2.61-7.82.87Z" style="fill: rgb(255, 181, 115); transform-origin: 203.255px 167.579px;" id="elya2p9eansw" class="animable"></path><polygon points="214.53 161.71 215.17 169.31 207.29 171.37 207.91 162.31 214.53 161.71" style="fill: rgb(255, 181, 115); transform-origin: 211.23px 166.54px;" id="elegozklcpzjk" class="animable"></polygon><g id="elu0wsnct8dk9"><rect x="191.49" y="147.21" width="76.92" height="1" style="fill: rgb(38, 50, 56); transform-origin: 229.95px 147.71px; transform: rotate(-45.32deg);" class="animable" id="elp0oyo3tf0yk"></rect></g><path d="M207,169.63h0l1.46.16a8.31,8.31,0,0,0,2.23-.08l.68-.6a1.24,1.24,0,0,0-.86-1.23l-1.08-.35-4.75-2.61-1.35,1.84,0,2.91.45.32A2.47,2.47,0,0,0,207,169.63Z" style="fill: rgb(255, 181, 115); transform-origin: 207.35px 167.674px;" id="elhwk9j9rzqov" class="animable"></path><path d="M152.31,161.41c3.75-.68,30.2,22.26,30.2,22.26l-7.84,11.5s-28.93-20.14-28-25C147.55,165.1,146.84,162.41,152.31,161.41Z" style="fill: rgb(38, 50, 56); transform-origin: 164.579px 178.283px;" id="elw582t4ca28" class="animable"></path><g id="elz1ni2k42hpl"><path d="M155.64,168.79l-.28,12c3,2.33,13.84,10.64,13.84,10.64Z" style="opacity: 0.2; isolation: isolate; transform-origin: 162.28px 180.11px;" class="animable" id="elnl8w9ea5azn"></path></g><polygon points="135.55 402.4 143.26 402.77 146.36 380.07 137.49 379.19 135.55 402.4" style="fill: rgb(255, 181, 115); transform-origin: 140.955px 390.98px;" id="elxjlskx1x2qj" class="animable"></polygon><g id="el4ay4wdkx5sf"><polygon points="146.36 380.07 144.91 390.67 136.6 389.86 137.48 379.2 146.36 380.07" style="opacity: 0.2; transform-origin: 141.48px 384.935px;" class="animable" id="elernt1kqilsf"></polygon></g><polygon points="105.71 397.52 112.69 398.84 115.5 378.27 106.63 377.4 105.71 397.52" style="fill: rgb(255, 181, 115); transform-origin: 110.605px 388.12px;" id="el5uvqmdu6hza" class="animable"></polygon><g id="elqdla5jy6f8k"><polygon points="115.5 378.6 113.99 389.66 106.14 388.44 106.62 377.73 115.5 378.6" style="opacity: 0.2; transform-origin: 110.82px 383.695px;" class="animable" id="el3v0sz9xekow"></polygon></g><path d="M151.67,213.66l-6.61,0-26.81.07c.54-13.88.48-25.11-5.45-52.41a4.62,4.62,0,0,1,4.49-5.61c2.77,0,6.24.1,9.76.46a121.52,121.52,0,0,1,16.55,2.5l.63.15a76.88,76.88,0,0,1,8.08,2.57c1.71.59,3.79,5.26,5.66,10.6C163,180.62,156.85,187.9,151.67,213.66Z" style="fill: rgb(255, 255, 255); transform-origin: 136.266px 184.72px;" id="elftynph9q0jm" class="animable"></path><path d="M152.91,215.4s18.76,54.27,18.31,80.36c-.26,14.95-1.38,42.81-5.89,62.4-3.68,16-18.68,26.2-18.68,26.2l-12-.71s-6.49-24.4-5.36-34.11c2.25-19.32,8.91-33.85,8.11-51.59-1.28-29.07-9.88-83-9.88-83Z" style="fill: #000000; transform-origin: 149.374px 299.655px;" id="elqgmrs6yla7" class="animable"></path><g id="elj2q59kqit3j"><path d="M131.77,372.4s0-.11.08-.11c10.71,0,23-25,22.41-69.21L149.36,266Z" style="opacity: 0.2; isolation: isolate; transform-origin: 143.025px 319.2px;" class="animable" id="elhb9u2aapb4m"></path></g><path d="M143.3,215.54s11.41,59.68,7.8,85.53c-2.06,14.81-6.55,42.32-13.4,61.23-5.58,15.42-21.7,23.75-21.7,23.75l-11.86-2.16s-3.49-25-1.2-34.51c4.57-18.91,13-32.53,14.29-50.24,2.24-29,.23-83.6.23-83.6Z" style="fill: #000000; transform-origin: 126.984px 300.795px;" id="elp1707j48b" class="animable"></path><polygon points="132.23 386.78 149.18 387.79 150.73 382.69 131.79 380.94 132.23 386.78" style="fill: rgb(38, 50, 56); transform-origin: 141.26px 384.365px;" id="el2eio3fksw76" class="animable"></polygon><polygon points="103.14 385.21 119.88 388.03 121.97 383.13 103.32 379.36 103.14 385.21" style="fill: rgb(38, 50, 56); transform-origin: 112.555px 383.695px;" id="ellkatl3nqwa" class="animable"></polygon><path d="M118.12,212.05l-.92,3.25c-.13.26.17.51.59.51l34.49-.05c.33,0,.61-.16.63-.36l.32-3.26c0-.22-.27-.41-.63-.41l-33.89.05A.65.65,0,0,0,118.12,212.05Z" style="fill: #000000; transform-origin: 135.2px 213.77px;" id="elednink5jrok" class="animable"></path><g id="el6d5pj5dvyts"><g style="opacity: 0.5; transform-origin: 135.2px 213.77px;" class="animable" id="el92md224cudr"><path d="M118.12,212.05l-.92,3.25c-.13.26.17.51.59.51l34.49-.05c.33,0,.61-.16.63-.36l.32-3.26c0-.22-.27-.41-.63-.41l-33.89.05A.65.65,0,0,0,118.12,212.05Z" style="fill: rgb(255, 255, 255); transform-origin: 135.2px 213.77px;" id="elmwkdoa1oza8" class="animable"></path></g></g><path d="M124.71,216.11h-1c-.18,0-.34-.1-.32-.22l.45-4.23c0-.12.18-.22.38-.22h1c.19,0,.35.1.33.23l-.45,4.22C125.07,216,124.9,216.11,124.71,216.11Z" style="fill: #000000; transform-origin: 124.47px 213.775px;" id="el42oiitm6xbi" class="animable"></path><path d="M149.61,216.11h-1c-.19,0-.34-.1-.33-.22l.45-4.22c0-.13.19-.23.38-.23h1c.19,0,.34.1.33.22l-.45,4.22C150,216,149.81,216.11,149.61,216.11Z" style="fill: #000000; transform-origin: 149.36px 213.775px;" id="ela1yevjf3l88" class="animable"></path><path d="M138.21,216.08h-1c-.19,0-.34-.1-.32-.22l.45-4.22c0-.13.18-.23.37-.22h1c.19,0,.35.1.33.22l-.45,4.22C138.57,216,138.41,216.09,138.21,216.08Z" style="fill: #000000; transform-origin: 137.965px 213.75px;" id="elrijb0i0c2zp" class="animable"></path><path d="M128.61,138c1.06,5.44,2.1,15.28-1.59,18.25,0,0,1.47,5.58,11.36,7.07,10.92,1.65,5.19-4.57,5.19-4.57-5.94-2.36-5.8-6.65-4.77-10.61Z" style="fill: rgb(255, 181, 115); transform-origin: 136.046px 150.799px;" id="eljxr2kcxjje8" class="animable"></path><g id="elonih2uif4ai"><path d="M132.76,142.13l6,6a16.14,16.14,0,0,0-.5,2.83c-2.27-.66-5.93-3.17-6.18-5.57A8.29,8.29,0,0,1,132.76,142.13Z" style="opacity: 0.2; isolation: isolate; transform-origin: 135.42px 146.545px;" class="animable" id="el3imxqi1er8l"></path></g><path d="M121.94,131.1c2.67,8.47,3.62,12.11,9.1,15.44,8.19,5,18-.13,17.91-9.21-.08-8.18-4.43-20.64-13.73-22a12.1,12.1,0,0,0-13.28,15.74Z" style="fill: rgb(255, 181, 115); transform-origin: 135.144px 131.847px;" id="elviwkoaes7ld" class="animable"></path><path d="M142.12,129.78a18.83,18.83,0,0,0,3.42,4,3.14,3.14,0,0,1-2.43,1Z" style="fill: rgb(237, 137, 62); transform-origin: 143.83px 132.281px;" id="el2rtnl5pv1s3" class="animable"></path><path d="M141.17,139.3a5.8,5.8,0,0,0,1-.19.2.2,0,0,0,.15-.24h0a.22.22,0,0,0-.25-.16,5.65,5.65,0,0,1-5.06-1,.22.22,0,0,0-.3,0,.23.23,0,0,0,0,.31A6,6,0,0,0,141.17,139.3Z" style="fill: rgb(38, 50, 56); transform-origin: 139.488px 138.496px;" id="el000c7chi1eth9" class="animable"></path><path d="M117.33,118.25a8.22,8.22,0,0,0-3.74,6.56,3,3,0,0,0,.23,1.46,1.42,1.42,0,0,0,1.14.85c.76,0,1.33-.67,1.74-1.31l1.94-3a15,15,0,0,0,2-3.2C121.29,117.64,118.52,117.5,117.33,118.25Z" style="fill: #000000; transform-origin: 117.157px 122.475px;" id="elc9wksrd74qo" class="animable"></path><path d="M120,116.21c-5.32,6.13-7.69,23.12,7.86,27.86,2.6-2-1.6-5.8-3.38-10.54-1.16-3.11,4.76-8.9,7.08-11.27s4.43-5.81,7.7-5.26a4.48,4.48,0,0,0,2.56.07c2.59-1.17,1.33-2.72,0-3.81a13.51,13.51,0,0,0-7.05-2.58A17.31,17.31,0,0,0,120,116.21Z" style="fill: rgb(38, 50, 56); transform-origin: 129.645px 127.318px;" id="el86ylu6ogg44" class="animable"></path><path d="M123.34,134l-.43-.46c0-.5,0-.5,8.68-3.23l.3,1c-3,.93-7.85,2.47-8.23,2.66l-.21-.44h0Z" style="fill: #000000; transform-origin: 127.4px 132.155px;" id="el492xuqkp7xq" class="animable"></path><path d="M121,138.21a6.55,6.55,0,0,0,4.16,2.7c2.24.4,3.11-1.66,2.33-3.66-.72-1.79-2.76-4.17-4.92-3.65a2.91,2.91,0,0,0-2.1,3.54A3.07,3.07,0,0,0,121,138.21Z" style="fill: rgb(255, 181, 115); transform-origin: 124.075px 137.244px;" id="elvyhe8zjkhk" class="animable"></path><path d="M136.17,114.68c1.21,3.07,4.7,2.67,7.29,5.89,1.58,2,4.7-4.17.46-6.61S134.28,109.86,136.17,114.68Z" style="fill: rgb(38, 50, 56); transform-origin: 140.918px 116.274px;" id="eldeouhl9notn" class="animable"></path><path d="M132.5,127.67a.38.38,0,0,0,.42-.24c.83-1.83,3.29-2.28,3.31-2.29a.42.42,0,0,0,.34-.49.44.44,0,0,0-.5-.34c-.12,0-2.93.59-3.92,2.79a.42.42,0,0,0,.2.56h.15Z" style="fill: rgb(38, 50, 56); transform-origin: 134.343px 125.99px;" id="elhc9pv9zotpr" class="animable"></path><path d="M145.5,124a.42.42,0,0,0,.26-.77h0a4.24,4.24,0,0,0-3.83-.49.43.43,0,0,0-.23.56.41.41,0,0,0,.56.22h0a3.34,3.34,0,0,1,3,.42A.57.57,0,0,0,145.5,124Z" style="fill: rgb(38, 50, 56); transform-origin: 143.808px 123.245px;" id="elw717cccaqfp" class="animable"></path><path d="M186.61,178.74l-5.85,3.33-6.09,13.1s5.88,3.74,10.51.71S186.61,178.74,186.61,178.74Z" style="fill: rgb(38, 50, 56); transform-origin: 181.179px 187.902px;" id="eliecbzkexm0r" class="animable"></path><path d="M145.09,127.39c.48-.09,1,.45,1.11,1.19s-.16,1.42-.64,1.5-1-.45-1.11-1.19S144.61,127.48,145.09,127.39Z" style="fill: rgb(38, 50, 56); transform-origin: 145.325px 128.734px;" id="el8bsjosfvjj2" class="animable"></path><path d="M146.57,126.66l-1.69.83C145.9,128.21,146.57,126.66,146.57,126.66Z" style="fill: rgb(38, 50, 56); transform-origin: 145.725px 127.17px;" id="elyjswk7w7lkf" class="animable"></path><path d="M136.72,129.1c.48-.09,1,.45,1.11,1.19s-.16,1.42-.64,1.5-1-.45-1.11-1.19S136.24,129.19,136.72,129.1Z" style="fill: rgb(38, 50, 56); transform-origin: 136.955px 130.444px;" id="elk3ek2k1cap9" class="animable"></path><path d="M138.2,128.37l-1.69.83C137.53,129.92,138.2,128.37,138.2,128.37Z" style="fill: rgb(38, 50, 56); transform-origin: 137.355px 128.88px;" id="elnd9jvhah0vj" class="animable"></path><path d="M111.91,114.4c.08-1.93,1-4.25-.17-5.76,2.09,1.69,1.67,2.66,1.85,3.15a15.36,15.36,0,0,0-1.13-4.79,6.8,6.8,0,0,1,2.48,4.33,24,24,0,0,0-1.18-5.12,9,9,0,0,1,2.87,6.06c0-1.06,0-2.11-.07-3.17a15,15,0,0,1,.91,3.21,10.49,10.49,0,0,1-.14,3.44,4.42,4.42,0,0,1-1.55,2.89,2.88,2.88,0,0,1-3.15.28C110.23,117.44,111.84,116.14,111.91,114.4Z" style="fill: rgb(38, 50, 56); transform-origin: 114.434px 112.736px;" id="elrr9tg8hkrj7" class="animable"></path><path d="M138.07,133.58a3,3,0,0,1-.41,0l-4.68-.89a2.16,2.16,0,0,1-1.73-1.72,2.19,2.19,0,0,1,1.69-2.56l6-1.27a2.18,2.18,0,0,1,2.52,1.44l.09.26a2.16,2.16,0,0,1-.34,2l-1.45,1.9A2.16,2.16,0,0,1,138.07,133.58Zm1.36-5.52a1,1,0,0,0-.24,0l-6,1.27a1.19,1.19,0,0,0-.92,1.38h0a1.17,1.17,0,0,0,.94.94l4.68.89a1.18,1.18,0,0,0,1.16-.45l1.45-1.9a1.16,1.16,0,0,0,.18-1.09l-.09-.26A1.17,1.17,0,0,0,139.43,128.06Z" style="fill: #000000; transform-origin: 136.435px 130.34px;" id="eluws4j0g9pwj" class="animable"></path><path d="M146.16,131.17a2.38,2.38,0,0,1-.65-.1l-2.28-.71a2.21,2.21,0,0,1-1.45-1.46l-.07-.26a2.18,2.18,0,0,1,1.22-2.63l4.66-1.77a2.18,2.18,0,0,1,2.84,1.12h0a2.14,2.14,0,0,1-.42,2.4l-2.26,2.71A2.18,2.18,0,0,1,146.16,131.17Zm2.28-6.1a1.27,1.27,0,0,0-.47.09l-4.66,1.78a1.18,1.18,0,0,0-.65,1.41l.08.26a1.19,1.19,0,0,0,.78.79l2.28.71a1.16,1.16,0,0,0,1.21-.31l2.26-2.7a1.19,1.19,0,0,0,.25-1.33A1.18,1.18,0,0,0,148.44,125.07Z" style="fill: #000000; transform-origin: 146.122px 127.619px;" id="eljpfib5aa67i" class="animable"></path><path d="M115.78,226.41a18.33,18.33,0,0,0,1.55,6.13c1.86,3.57,6,5.52,10,5.88s8-.63,11.91-1.61c-.46-19.78-.92-39.61-3.47-59.23-1-7.72-4.56-19.9-6.9-24.23,0,0-17.16,1.52-21.29,5.49-4.43,4.26,1,11.62,1.65,17Q112.49,201.13,115.78,226.41Z" style="fill: rgb(38, 50, 56); transform-origin: 122.548px 195.923px;" id="ela14m31arawg" class="animable"></path><path d="M156.63,211.41l1.75,16.34a7.78,7.78,0,0,1-6.49,8.49l-5,.8c-.53-14.55-.85-40-.85-49.14,0-12.86-2.76-23-4.58-30.22,4.13,1,8,2.8,10.83,3.73,1.71.59,4.38,5.16,6.25,10.5C163.63,180.52,157,198.56,156.63,211.41Z" style="fill: rgb(38, 50, 56); transform-origin: 150.957px 197.36px;" id="el3latrmk5f3p" class="animable"></path><path d="M87.87,196.46l14.82.34-.49-1.1a5.07,5.07,0,0,1,.82-5.42c5.4-6.12,19-21.88,18.91-24.92-.22-4.32-4.77-7.25-9.92-7.15-3.8.08-14.37,16.69-20.81,24.93C85.51,190.44,87.87,196.46,87.87,196.46Z" style="fill: rgb(38, 50, 56); transform-origin: 104.658px 177.504px;" id="elnqmjtnsw6r" class="animable"></path><path d="M98.73,197.4a112.52,112.52,0,0,1,19.71,20.23l3.06,3.44-5.5,3.6s-17.4-11.83-21.46-16.32a23.65,23.65,0,0,1-5.21-9.69Z" style="fill: rgb(255, 181, 115); transform-origin: 105.415px 211.035px;" id="elmh6emunod8q" class="animable"></path><path d="M106.7,202.74l-4.15-5.89-15-1.69s-2.86,6.61,3.44,10.45C95.71,208.49,106.7,202.74,106.7,202.74Z" style="fill: rgb(38, 50, 56); transform-origin: 96.8012px 200.789px;" id="elmw18txytne" class="animable"></path><path d="M114,216.64l10.46,3.24-7.26,5.47s-5.36-2.2-5.78-5.33Z" style="fill: rgb(255, 181, 115); transform-origin: 117.94px 220.995px;" id="elsm08s6bgj9d" class="animable"></path><polygon points="129.23 224.5 123.91 229.96 117.19 225.35 124.44 219.88 129.23 224.5" style="fill: rgb(255, 181, 115); transform-origin: 123.21px 224.92px;" id="el8p4ak7e40yo" class="animable"></polygon></g><defs>     <filter id="active" height="200%">         <feMorphology in="SourceAlpha" result="DILATED" operator="dilate" radius="2"></feMorphology>                <feFlood flood-color="#32DFEC" flood-opacity="1" result="PINK"></feFlood>        <feComposite in="PINK" in2="DILATED" operator="in" result="OUTLINE"></feComposite>        <feMerge>            <feMergeNode in="OUTLINE"></feMergeNode>            <feMergeNode in="SourceGraphic"></feMergeNode>        </feMerge>    </filter>    <filter id="hover" height="200%">        <feMorphology in="SourceAlpha" result="DILATED" operator="dilate" radius="2"></feMorphology>                <feFlood flood-color="#ff0000" flood-opacity="0.5" result="PINK"></feFlood>        <feComposite in="PINK" in2="DILATED" operator="in" result="OUTLINE"></feComposite>        <feMerge>            <feMergeNode in="OUTLINE"></feMergeNode>            <feMergeNode in="SourceGraphic"></feMergeNode>        </feMerge>            <feColorMatrix type="matrix" values="0   0   0   0   0                0   1   0   0   0                0   0   0   0   0                0   0   0   1   0 "></feColorMatrix>    </filter></defs></svg>